<?xml version="1.0" encoding="UTF-8"?>
<svg version="1.1" xmlns="http://www.w3.org/2000/svg" width="512" height="512">
<path d="M0 0 C0.74813965 0.20367188 1.4962793 0.40734375 2.26708984 0.6171875 C36.84698241 10.23219303 66.08901795 33.9382352 83.84326172 64.92626953 C90.94730856 77.66197529 95.72800069 90.78298911 99 105 C99.19577637 105.82274414 99.39155273 106.64548828 99.59326172 107.49316406 C101.56713279 117.2234152 101.372167 127.12319681 101.37060547 137.00927734 C101.37500031 140.12522192 101.41147946 143.23977153 101.44921875 146.35546875 C101.45508485 148.36457857 101.45905563 150.373695 101.4609375 152.3828125 C101.47530853 153.29974884 101.48967957 154.21668518 101.50448608 155.16140747 C101.43820923 164.65570283 98.39505199 172.38645404 91.8359375 179.25 C79.22473201 191.27089374 63.36251599 189.38703186 47 189 C47.01812744 189.64283936 47.03625488 190.28567871 47.05493164 190.94799805 C47.32582437 207.59938713 39.99042143 221.55211183 29.69921875 234.26953125 C27 237 27 237 24.50756836 238.56469727 C20.21611031 241.37778745 17.43103249 243.28436028 16.14477539 248.40405273 C15.94896274 251.71431933 15.90802803 254.94463713 16.08081055 258.25610352 C16.18824453 260.32685048 16.22429526 262.38964411 16.24804688 264.46289062 C16.11989975 270.88525717 16.11989975 270.88525717 18.07104492 276.82373047 C21.01921593 278.62151403 24.14555654 278.93951849 27.5078125 279.39453125 C29.05567197 279.62690046 30.6035232 279.85932457 32.15136719 280.09179688 C32.96327515 280.209021 33.77518311 280.32624512 34.61169434 280.44702148 C106.52066469 290.90384101 106.52066469 290.90384101 127.0859375 318.0703125 C137.10581035 333.40685257 141.1276637 348.71014525 141.17700195 366.93896484 C141.18357315 368.00671646 141.19014435 369.07446808 141.19691467 370.17457581 C141.21652833 373.68669722 141.22828108 377.1987762 141.23828125 380.7109375 C141.24235678 381.91573383 141.2464323 383.12053017 141.25063133 384.36183548 C141.27143713 390.73406042 141.2857648 397.10626414 141.29516602 403.47851562 C141.30624329 410.0442878 141.34067467 416.60972231 141.38033772 423.17537498 C141.40651998 428.24043392 141.41485912 433.30541234 141.41844749 438.37053299 C141.42330602 440.79053666 141.4348989 443.21053692 141.45348549 445.63047409 C141.47791953 449.02133601 141.47690413 452.41132249 141.4699707 455.80224609 C141.48918579 457.28636238 141.48918579 457.28636238 141.50878906 458.80046082 C141.45224987 466.42300179 139.92922111 473.43001177 135 479.4375 C134.34 479.953125 133.68 480.46875 133 481 C132.34 481.53625 131.68 482.0725 131 482.625 C127.05216094 485.33913935 124.33004646 486.2501708 119.49577522 486.25447559 C118.36985785 486.26030779 117.24394047 486.26613998 116.08390439 486.27214891 C114.22819248 486.26647992 114.22819248 486.26647992 112.33499146 486.26069641 C111.02090329 486.26452196 109.70681513 486.26834751 108.35290611 486.27228898 C104.70219052 486.28259743 101.05157283 486.28037994 97.4008491 486.27610838 C93.46483337 486.27364629 89.52884152 486.2826489 85.59283447 486.29014587 C77.88035603 486.30290956 70.16791238 486.30468447 62.45542516 486.30234561 C56.18745148 486.30056407 49.91948838 486.30230857 43.65151596 486.30657005 C42.76012394 486.30716524 41.86873192 486.30776043 40.95032801 486.30837366 C39.13957454 486.30958538 37.32882106 486.31079952 35.51806758 486.31201603 C18.52807171 486.32289811 1.53809567 486.32072599 -15.45190133 486.31463119 C-30.99961478 486.30946205 -46.54726558 486.32071619 -62.09496664 486.33972941 C-78.0531633 486.35909524 -94.01133031 486.36736597 -109.96953881 486.36360615 C-118.93131135 486.36169212 -127.89303057 486.36420127 -136.85479355 486.37832069 C-144.48446313 486.39021952 -152.11404657 486.39165629 -159.7437173 486.37953053 C-163.63710672 486.37363113 -167.53033847 486.37257154 -171.4237175 486.38453293 C-175.64294541 486.39734483 -179.86179613 486.38695246 -184.08102417 486.3742218 C-185.31370399 486.38159609 -186.54638382 486.38897037 -187.81641757 486.39656812 C-195.22756983 486.34935104 -199.9064805 485.72524337 -205.625 480.6875 C-210.71415741 474.92871662 -213.10116765 470.63634453 -213.16113281 463.01953125 C-213.17074036 462.03170654 -213.1803479 461.04388184 -213.19024658 460.02612305 C-213.19449646 458.96562744 -213.19874634 457.90513184 -213.203125 456.8125 C-213.20882507 455.71784424 -213.21452515 454.62318848 -213.22039795 453.49536133 C-213.22983782 451.18213872 -213.23637791 448.86890272 -213.24023438 446.55566406 C-213.2499631 443.01343514 -213.28100598 439.47178086 -213.3125 435.9296875 C-213.31902799 433.68229511 -213.32427926 431.43489858 -213.328125 429.1875 C-213.3404718 428.12700439 -213.3528186 427.06650879 -213.36553955 425.97387695 C-213.36253845 424.98605225 -213.35953735 423.99822754 -213.35644531 422.98046875 C-213.36009094 422.11317139 -213.36373657 421.24587402 -213.36749268 420.35229492 C-212.9140993 417.45015562 -212.03103449 416.1015815 -210 414 C-206.02655839 412.89626622 -203.91000228 412.58456417 -200.125 414.3125 C-198 416 -198 416 -197 418 C-196.8868475 419.52567816 -196.83338243 421.05599539 -196.81054688 422.58569336 C-196.79382935 423.53685532 -196.77711182 424.48801727 -196.7598877 425.46800232 C-196.74631226 426.49820999 -196.73273682 427.52841766 -196.71875 428.58984375 C-196.70034058 429.64530899 -196.68193115 430.70077423 -196.66296387 431.78822327 C-196.60408582 435.17125769 -196.551329 438.55434311 -196.5 441.9375 C-196.43242925 446.38422365 -196.35873667 450.8307831 -196.28125 455.27734375 C-196.26767456 456.30552719 -196.25409912 457.33371063 -196.2401123 458.39305115 C-196.22339478 459.34736526 -196.20667725 460.30167938 -196.18945312 461.28491211 C-196.17692505 462.12493271 -196.16439697 462.96495331 -196.15148926 463.83042908 C-196.07791346 466.18189165 -196.07791346 466.18189165 -195 469 C-191.0293204 469.91983592 -187.23837938 470.19088698 -183.16796875 470.31640625 C-181.87568359 470.35830078 -180.58339844 470.40019531 -179.25195312 470.44335938 C-177.89713808 470.48316352 -176.54232033 470.52287591 -175.1875 470.5625 C-173.81313895 470.60573723 -172.43878976 470.64935312 -171.06445312 470.69335938 C-167.70973331 470.7992979 -164.3549414 470.90137189 -161 471 C-161.02618408 469.90534424 -161.05236816 468.81068848 -161.0793457 467.68286133 C-161.17003219 463.61096742 -161.22731549 459.53916224 -161.2746582 455.46655273 C-161.29976061 453.70598324 -161.33385028 451.94551753 -161.37719727 450.18530273 C-161.43804115 447.65061821 -161.46625113 445.11731425 -161.48828125 442.58203125 C-161.51408768 441.79850784 -161.5398941 441.01498444 -161.56648254 440.2077179 C-161.56865563 435.94739649 -161.36149122 434.45367718 -158.6027832 430.99145508 C-156 429 -156 429 -153.8671875 428.5546875 C-152.88105469 428.71324219 -152.88105469 428.71324219 -151.875 428.875 C-151.21242187 428.95492188 -150.54984375 429.03484375 -149.8671875 429.1171875 C-148 430 -148 430 -145 435 C-145 446.88 -145 458.76 -145 471 C-111.67 471 -78.34 471 -44 471 C-44 430.74 -44 390.48 -44 349 C-55.88 350.98 -55.88 350.98 -68 353 C-79.57160194 354.65308599 -89.15869197 354.92925015 -99.046875 347.8046875 C-102.34971523 344.91496678 -104.37875769 341.61832586 -106.5 337.8125 C-106.90726318 337.10287109 -107.31452637 336.39324219 -107.73413086 335.66210938 C-112.4574016 327.35263547 -116.94874734 318.90791837 -121.44140625 310.47192383 C-122.01890625 309.38806396 -122.59640625 308.3042041 -123.19140625 307.1875 C-123.70904541 306.21167969 -124.22668457 305.23585938 -124.76000977 304.23046875 C-125.81377357 302.09474505 -125.81377357 302.09474505 -127 301 C-143.53473975 303.74176475 -162.59429511 308.51234726 -176 319 C-177.03125 319.7425 -178.0625 320.485 -179.125 321.25 C-189.27983284 330.96331837 -195.54735686 344.79240865 -196.16967773 358.82641602 C-196.19812785 360.26438607 -196.22078537 361.70247995 -196.23828125 363.140625 C-196.24722916 363.87558701 -196.25617706 364.61054901 -196.26539612 365.36778259 C-196.29486914 368.44227678 -196.31471953 371.51617895 -196.30541992 374.59082031 C-196.30279898 376.85817333 -196.33088487 379.12353851 -196.36328125 381.390625 C-196.35307449 382.08029358 -196.34286774 382.76996216 -196.33235168 383.48052979 C-196.40991396 387.3109632 -196.92723464 388.90916225 -199.35229492 391.93652344 C-202 394 -202 394 -205 394.625 C-209.08756072 393.77342485 -210.40969455 392.24507487 -213 389 C-213.49047246 386.20022763 -213.68111475 384.02361375 -213.62890625 381.234375 C-213.63131821 380.48271057 -213.63373016 379.73104614 -213.63621521 378.956604 C-213.63523752 377.3629429 -213.62186196 375.76924752 -213.59692383 374.17578125 C-213.56318435 371.798225 -213.57612079 369.42451691 -213.59570312 367.046875 C-213.58469641 353.6255889 -211.95367632 339.93243927 -205.25 328.0625 C-204.90710938 327.45535156 -204.56421875 326.84820312 -204.2109375 326.22265625 C-191.82136035 304.880027 -172.37489311 294.79786723 -149.1875 288.5625 C-132.65665423 284.26738594 -115.75724636 281.66508224 -98.90132141 279.00184631 C-95.83149364 278.50965265 -92.95556075 277.98518692 -90 277 C-88.55037817 274.10075634 -88.77873519 271.47699645 -88.68359375 268.2421875 C-88.66281265 267.57913605 -88.64203156 266.91608459 -88.62062073 266.23294067 C-88.55520769 264.11373306 -88.49627895 261.994401 -88.4375 259.875 C-88.39430691 258.43878919 -88.35069236 257.00259098 -88.30664062 255.56640625 C-88.19953501 252.04440406 -88.09824425 248.52226175 -88 245 C-88.61190186 244.70810791 -89.22380371 244.41621582 -89.85424805 244.11547852 C-92.54353836 242.71743921 -94.55201805 240.95591459 -96.8125 238.9375 C-98.15441406 237.74447266 -98.15441406 237.74447266 -99.5234375 236.52734375 C-101.88615016 234.1161843 -103.2732733 231.90542371 -104.9375 229 C-106.72447451 226.52143199 -108.00193049 225.22326507 -111.0234375 224.54736328 C-115.12638199 224.08987134 -119.18488487 224.05425318 -123.30859375 224.09765625 C-130.63548208 224.11569907 -136.49170967 222.40230655 -142.23828125 217.7734375 C-147.66593721 212.3096774 -148.90858274 205.62012348 -149.09765625 198.1328125 C-149.09110736 196.79683965 -149.07932798 195.46088291 -149.0625 194.125 C-149.05798828 193.43664062 -149.05347656 192.74828125 -149.04882812 192.0390625 C-149.03716336 190.35933665 -149.01923271 188.67965625 -149 187 C-150.3303125 186.8453125 -150.3303125 186.8453125 -151.6875 186.6875 C-158.61278718 185.25017625 -164.31501001 180.45650749 -168.4375 174.8125 C-174.0918264 165.0534073 -174.46810039 154.46178757 -174.3125 143.4375 C-174.3012207 142.11919189 -174.28994141 140.80088379 -174.27832031 139.44262695 C-173.7315095 100.2521203 -162.43858919 65.66134272 -135 37 C-134.32839844 36.26523437 -133.65679687 35.53046875 -132.96484375 34.7734375 C-100.24578569 0.15850878 -45.33692474 -12.94484566 0 0 Z M-70 16 C-70.68271973 16.20898926 -71.36543945 16.41797852 -72.06884766 16.63330078 C-102.14886861 26.22413622 -128.60589398 46.93825527 -143.35546875 75.09008789 C-144.99143042 78.35535143 -146.51670967 81.66303457 -148 85 C-148.72316406 86.59908203 -148.72316406 86.59908203 -149.4609375 88.23046875 C-156.71652165 105.57791085 -158.17358002 124.08878789 -158.25 142.6875 C-158.270625 143.95400391 -158.29125 145.22050781 -158.3125 146.52539062 C-158.34111128 153.3670621 -158.30438006 158.92577195 -155 165 C-153.52633985 166.45191425 -153.52633985 166.45191425 -151.88378906 167.71362305 C-150.93213867 168.46812744 -149.98048828 169.22263184 -149 170 C-148.98018066 168.9891333 -148.96036133 167.9782666 -148.93994141 166.93676758 C-148.03751667 122.43189394 -145.73542808 83.39653458 -111.765625 50.46875 C-89.08753166 30.22502826 -59.21264137 20.46602483 -29 22 C-5.30842768 23.53970386 18.24361009 31.93014892 36 48 C36.80179688 48.66128906 37.60359375 49.32257813 38.4296875 50.00390625 C52.43287518 61.84772387 62.32146379 77.33689403 68.8125 94.375 C69.09061523 95.09260498 69.36873047 95.81020996 69.65527344 96.54956055 C75.47676058 112.69691938 75.51983477 129.05013053 75.6875 146 C75.72074569 148.33595577 75.75524177 150.67189408 75.79101562 153.0078125 C75.87507694 158.67175489 75.94376457 164.33571649 76 170 C80.34185387 168.0338775 82.85617758 165.28764485 85 161 C85.13638806 158.09879074 85.21292475 155.22305241 85.23828125 152.3203125 C85.25038887 150.99735672 85.25038887 150.99735672 85.26274109 149.64767456 C85.27660607 147.76627574 85.28731737 145.88485151 85.29516602 144.00341797 C85.3065284 142.11662198 85.32671989 140.22985389 85.35668945 138.34326172 C85.85283088 107.08357989 77.21343628 79.05094956 57 55 C56.18015625 54.00355469 55.3603125 53.00710937 54.515625 51.98046875 C38.49037208 33.45430515 17.43937242 21.46900803 -6 15 C-7.21171875 14.6596875 -8.4234375 14.319375 -9.671875 13.96875 C-28.99363338 9.49074591 -51.04145502 10.19363971 -70 16 Z M-107.81640625 68.4765625 C-119.82333908 82.35219508 -126.92818378 97.16999731 -131 115 C-127.04 115 -123.08 115 -119 115 C-118.57589844 114.05898437 -118.15179688 113.11796875 -117.71484375 112.1484375 C-112.85557436 101.69631844 -107.98771786 95.41774223 -97 91 C-94.20297946 90.18926341 -91.69734426 89.86856628 -88.7890625 89.84228516 C-87.55627563 89.82689194 -87.55627563 89.82689194 -86.29858398 89.81118774 C-85.41630127 89.80388641 -84.53401855 89.79658508 -83.625 89.7890625 C-81.73306464 89.76096834 -79.84113769 89.73230375 -77.94921875 89.703125 C-74.98519357 89.66210043 -72.02132086 89.62519103 -69.05712891 89.59863281 C-51.08024363 89.42383661 -36.04037781 88.13188451 -21.9375 75.9375 C-13.34808023 68.5737903 -7.15065406 66.19516374 4.3515625 66.5625 C14.46462016 67.7752007 20.95216767 74.13201666 28 81 C28.79792969 81.73605469 29.59585938 82.47210938 30.41796875 83.23046875 C40.27217089 92.55647245 44.07194899 102.0821279 47 115 C50.63 115 54.26 115 58 115 C57.07510061 99.27671043 48.05398129 83.74372605 38 72 C37.01773438 70.80117187 37.01773438 70.80117187 36.015625 69.578125 C25.941821 57.73956701 14.05845318 50.24100887 0 44 C-1.39992187 43.36771484 -1.39992187 43.36771484 -2.828125 42.72265625 C-39.21484366 27.93357581 -81.43753046 40.88764654 -107.81640625 68.4765625 Z M-11.65234375 87.578125 C-24.53798541 99.67373789 -41.25135667 104.14820033 -58.5546875 104.10546875 C-60.4049596 104.11892208 -62.25522083 104.13394473 -64.10546875 104.15039062 C-66.99111021 104.17319911 -69.87551069 104.1874978 -72.76123047 104.17504883 C-86.54732528 103.67422719 -86.54732528 103.67422719 -98.57861328 109.4597168 C-103.57493772 114.87397493 -104.12476993 119.70326257 -104.12939453 126.8605957 C-104.13114685 127.54243927 -104.13289917 128.22428284 -104.13470459 128.92678833 C-104.13909842 131.17647869 -104.13619282 133.42609011 -104.1328125 135.67578125 C-104.13348648 137.2451326 -104.1344573 138.81448385 -104.13571167 140.38383484 C-104.1371855 143.67313633 -104.13504506 146.96241065 -104.13037109 150.25170898 C-104.1246881 154.45468733 -104.12794572 158.65760161 -104.13394356 162.86057758 C-104.13756972 166.1026202 -104.13640091 169.34464782 -104.13381577 172.5866909 C-104.13315144 174.13554072 -104.13395753 175.68439193 -104.13629532 177.23324013 C-104.13885407 179.40593657 -104.13493556 181.57853174 -104.12939453 183.7512207 C-104.12859894 184.98491898 -104.12780334 186.21861725 -104.12698364 187.48970032 C-103.99719754 191.07747043 -103.69891579 194.47722586 -103 198 C-102.34 198.33 -101.68 198.66 -101 199 C-98.98276656 198.03523618 -96.98387708 197.03161608 -95 196 C-91.18283557 194.68715234 -87.26065136 194.82054137 -83.26953125 194.796875 C-82.51967453 194.79117493 -81.76981781 194.78547485 -80.99723816 194.77960205 C-79.41117758 194.77017169 -77.82509759 194.76362588 -76.23901367 194.75976562 C-73.83802071 194.75010271 -71.43790012 194.71907961 -69.03710938 194.6875 C-59.93065716 194.62466496 -52.22798762 194.86320743 -44.1875 199.6875 C-39.52306409 204.6184751 -37.74921108 209.19395935 -37.5 216 C-37.74950727 222.81412949 -39.50258033 227.43320756 -44.25 232.3125 C-52.24725083 237.21990392 -59.76735271 237.62395116 -69 238 C-63.59700215 242.71133393 -57.69597137 244.68342311 -51 247 C-50.29617187 247.25136719 -49.59234375 247.50273437 -48.8671875 247.76171875 C-33.7179377 252.38519109 -18.46815063 247.18149623 -5.0625 240.125 C0.73946478 236.93086099 6.06499216 233.42417523 11 229 C11.83144531 228.26136719 12.66289062 227.52273437 13.51953125 226.76171875 C24.15731638 216.76188175 30.73670211 205.07377865 31.40424728 190.31856918 C31.51023545 186.69554086 31.55280957 183.07357148 31.58203125 179.44921875 C31.60402718 177.86178802 31.62696959 176.27437015 31.65080261 174.68696594 C31.6974017 171.37476224 31.7341435 168.06264505 31.76342773 164.75024414 C31.80117871 160.54446046 31.86124535 156.33936253 31.92854786 152.13395977 C31.97882468 148.85913709 32.01821065 145.58425028 32.05438805 142.30924416 C32.07252794 140.76055913 32.09361994 139.21190528 32.11795998 137.66330528 C32.37936909 120.06648102 31.52084027 106.60443315 18.81933594 93.46679688 C11.84573124 85.82843343 11.84573124 85.82843343 2.75390625 81.56640625 C-3.58939572 81.55509912 -6.97322852 83.1091828 -11.65234375 87.578125 Z M-132 131 C-133.08155348 135.32621393 -133.12578576 139.2855018 -133.09765625 143.703125 C-133.0962413 144.54091492 -133.09482635 145.37870483 -133.09336853 146.24188232 C-133.08778197 148.91129157 -133.07523194 151.5806162 -133.0625 154.25 C-133.05748326 156.06249879 -133.05292066 157.87499889 -133.04882812 159.6875 C-133.03781694 164.12503248 -133.02056155 168.56250191 -133 173 C-128.71 173 -124.42 173 -120 173 C-120 159.14 -120 145.28 -120 131 C-123.96 131 -127.92 131 -132 131 Z M47 131 C47 144.86 47 158.72 47 173 C51.29 173 55.58 173 60 173 C60 159.14 60 145.28 60 131 C55.71 131 51.42 131 47 131 Z M-133 189 C-133.04125 190.876875 -133.0825 192.75375 -133.125 194.6875 C-133.14820313 195.74324219 -133.17140625 196.79898438 -133.1953125 197.88671875 C-132.99332117 201.10646048 -132.56714161 203.18604446 -131 206 C-127.99495149 208.18192653 -125.3904522 208.22080137 -121.75 208.125 C-120.41195312 208.09792969 -120.41195312 208.09792969 -119.046875 208.0703125 C-118.37140625 208.04710937 -117.6959375 208.02390625 -117 208 C-117.30872329 205.39533457 -117.62181723 202.79132309 -117.9375 200.1875 C-118.02451172 199.44951172 -118.11152344 198.71152344 -118.20117188 197.95117188 C-118.58216546 194.83266879 -119.00369374 191.98891878 -120 189 C-124.29 189 -128.58 189 -133 189 Z M-94 215 C-92.75023244 218.65316671 -92.32901247 219.78065836 -89 222 C-84.44908945 222.41129973 -79.88875177 222.37160322 -75.3215332 222.37060547 C-73.0736107 222.37497839 -70.82765321 222.41130369 -68.58007812 222.44921875 C-67.1484442 222.45508737 -65.71680097 222.45905646 -64.28515625 222.4609375 C-62.98457275 222.46915527 -61.68398926 222.47737305 -60.34399414 222.48583984 C-56.94583086 222.26353792 -56.94583086 222.26353792 -54.54467773 220.16650391 C-52.69763806 218.019383 -52.69763806 218.019383 -53 214.875 C-53.69586248 211.98013532 -53.69586248 211.98013532 -55.62524414 210.84350586 C-60.57729738 209.08455202 -66.06231551 209.58810165 -71.27172852 209.57446289 C-73.42774726 209.56255387 -75.58091192 209.51333706 -77.73632812 209.46289062 C-79.11456944 209.4534264 -80.49282824 209.44619136 -81.87109375 209.44140625 C-83.74172485 209.42122437 -83.74172485 209.42122437 -85.65014648 209.40063477 C-89.84636414 210.15143386 -91.31696735 211.78067966 -94 215 Z M-72 256 C-72.01458252 256.59425781 -72.02916504 257.18851562 -72.04418945 257.80078125 C-72.11938678 260.53445634 -72.21580522 263.26700417 -72.3125 266 C-72.34633789 267.40185547 -72.34633789 267.40185547 -72.38085938 268.83203125 C-72.64073336 275.58875489 -73.88929593 280.76802722 -76.92675781 286.8581543 C-77.24054627 289.297614 -77.24054627 289.297614 -74.85375977 291.72973633 C-73.81260657 292.77688662 -72.75734633 293.81012349 -71.69140625 294.83203125 C-71.13186752 295.38686691 -70.5723288 295.94170258 -69.99583435 296.51335144 C-68.19608511 298.29171801 -66.37950591 300.05178687 -64.5625 301.8125 C-63.37196019 302.98652926 -62.18249399 304.16164829 -60.99414062 305.33789062 C-55.67202043 310.58400168 -50.32058211 315.76441697 -44.61499023 320.59667969 C-41.93442849 322.92591157 -39.4789214 325.45910557 -37 328 C-33.64956603 326.54811406 -31.49513804 324.7180341 -28.953125 322.11328125 C-27.8084375 320.9521582 -27.8084375 320.9521582 -26.640625 319.76757812 C-25.85171875 318.95740234 -25.0628125 318.14722656 -24.25 317.3125 C-19.27056016 312.22102277 -14.27225693 307.2754257 -8.86621094 302.63696289 C-5.94580854 300.07530694 -3.22306585 297.33071873 -0.5 294.5625 C0.03625 294.02173828 0.5725 293.48097656 1.125 292.92382812 C2.41904036 291.61823383 3.70988174 290.30947004 5 289 C4.71125 288.29875 4.4225 287.5975 4.125 286.875 C3.75375 285.92625 3.3825 284.9775 3 284 C2.64164062 283.14148438 2.28328125 282.28296875 1.9140625 281.3984375 C0.59670187 276.50055822 0.53144714 271.67693898 0.375 266.625 C0.33632812 265.60277344 0.29765625 264.58054687 0.2578125 263.52734375 C0.16402036 261.01840403 0.07832121 258.50946236 0 256 C-0.55179932 256.1853833 -1.10359863 256.3707666 -1.67211914 256.56176758 C-4.11323998 257.37910136 -6.55637653 258.19018082 -9 259 C-9.70624512 259.23638184 -10.41249023 259.47276367 -11.14013672 259.71630859 C-31.34889578 266.3463268 -48.60023309 265.24612964 -68.14453125 256.734375 C-69.97735474 255.87732894 -69.97735474 255.87732894 -72 256 Z M8 306.9375 C6.94069348 308.09592387 5.87690506 309.25026581 4.80859375 310.40039062 C3.25743518 312.07395611 1.71169792 313.75044217 0.18566895 315.44697571 C-3.10225629 319.10039091 -6.52109826 322.42410517 -10.33007812 325.54345703 C-13.23039113 328.07317449 -15.57049472 331.02385604 -18 334 C-1.80619756 338.56427987 -1.80619756 338.56427987 14.0625 336.5625 C21.53484683 330.04406979 25.77006805 320.18112524 30.375 311.5625 C31.0218269 310.36767148 31.66896051 309.17300893 32.31640625 307.97851562 C35.57415374 302.76036396 35.57415374 302.76036396 37 297 C22.85181275 293.01457915 17.33227045 296.1585367 8 306.9375 Z M-104.25 296 C-105.32765625 296.185625 -106.4053125 296.37125 -107.515625 296.5625 C-108.33546875 296.706875 -109.1553125 296.85125 -110 297 C-107.7748043 301.20810649 -105.53513545 305.40815505 -103.28417969 309.60253906 C-102.39399374 311.26444514 -101.50682928 312.92797183 -100.62207031 314.59277344 C-99.19445071 317.27505667 -97.75454813 319.95045098 -96.3125 322.625 C-95.86156982 323.47739258 -95.41063965 324.32978516 -94.94604492 325.20800781 C-90.60403244 333.32239335 -90.60403244 333.32239335 -83 338 C-67.46515174 338.32447781 -67.46515174 338.32447781 -54 333 C-55.31097656 331.79730469 -55.31097656 331.79730469 -56.6484375 330.5703125 C-64.87803609 322.97585382 -72.89003459 315.20275265 -80.74365234 307.21923828 C-84.02461389 303.89975562 -87.32617226 300.60772488 -90.78125 297.46875 C-91.30783203 296.98857422 -91.83441406 296.50839844 -92.37695312 296.01367188 C-95.87934832 293.82625538 -100.40234161 295.33084202 -104.25 296 Z M54 300 C53.6282666 300.69859131 53.2565332 301.39718262 52.87353516 302.11694336 C48.61963175 310.09841975 44.32761212 318.05827216 40 326 C39.24976563 327.37961914 39.24976563 327.37961914 38.484375 328.78710938 C28.01214455 347.88087437 28.01214455 347.88087437 17.625 351.9375 C8.00288377 354.47247457 -1.78080458 352.48796556 -11.4375 351 C-13.93593643 350.62326175 -16.43462331 350.24817959 -18.93359375 349.875 C-20.02728271 349.70742188 -21.12097168 349.53984375 -22.24780273 349.3671875 C-25.03284464 348.93387782 -25.03284464 348.93387782 -28 349 C-28 389.26 -28 429.52 -28 471 C5.33 471 38.66 471 73 471 C73.33 458.79 73.66 446.58 74 434 C78 430 78 430 81 429.5 C84.79782446 430.13297074 85.71657302 430.91646985 88 434 C88.41780431 436.9470526 88.60478118 439.53551763 88.609375 442.484375 C88.62591125 443.29996887 88.64244751 444.11556274 88.65948486 444.95587158 C88.70796583 447.55399097 88.72933523 450.15152509 88.75 452.75 C88.77815972 454.51435236 88.80808716 456.27867746 88.83984375 458.04296875 C88.91372442 462.36193097 88.96329812 466.68056829 89 471 C93.0384057 471.0744389 97.07654293 471.12873729 101.11547852 471.16479492 C102.48794517 471.17983432 103.86036414 471.20027133 105.23266602 471.22631836 C107.21088656 471.26291221 109.18946514 471.27816698 111.16796875 471.29296875 C112.35672607 471.3086792 113.5454834 471.32438965 114.77026367 471.34057617 C118.34380869 470.96374532 120.15676068 470.15919441 123 468 C125.08272381 464.87591429 125.25130128 464.18239771 125.26069641 460.63334656 C125.26778122 459.74072617 125.27486603 458.84810577 125.28216553 457.92843628 C125.27968811 456.95133698 125.27721069 455.97423767 125.2746582 454.9675293 C125.27976913 453.9361937 125.28488007 452.90485809 125.29014587 451.8422699 C125.30408631 448.41952767 125.30308028 444.99698607 125.30078125 441.57421875 C125.30466869 439.19065781 125.30900346 436.80709756 125.31376648 434.42353821 C125.3212404 429.41571821 125.32093107 424.40796866 125.31567383 419.40014648 C125.30990926 413.01290299 125.32673139 406.62595231 125.3500185 400.23875713 C125.36483269 395.30819538 125.36561658 390.37770264 125.36250877 385.44712257 C125.36301918 383.09463743 125.36820362 380.74214813 125.37832069 378.38968468 C125.45730747 357.43411893 124.54342599 339.12343799 109.2109375 323.1796875 C108.48132813 322.46039063 107.75171875 321.74109375 107 321 C106.15308594 320.13761719 106.15308594 320.13761719 105.2890625 319.2578125 C92.09167766 306.83295751 71.10092485 303.52168604 54 300 Z " fill="#000000" transform="translate(215,26)"/>
<path d="M0 0 C1.85431641 -0.05607422 1.85431641 -0.05607422 3.74609375 -0.11328125 C4.93332031 -0.12488281 6.12054688 -0.13648437 7.34375 -0.1484375 C8.97086914 -0.1781665 8.97086914 -0.1781665 10.63085938 -0.20849609 C13.5 0.375 13.5 0.375 15.88867188 2.68115234 C17.5 5.375 17.5 5.375 17.4375 9 C16.50464269 12.35828632 16.13734837 13.31276718 13.5 15.375 C10.59061517 15.70607803 7.85183508 15.88160864 4.9375 15.9375 C3.30189037 16.00317085 1.66645893 16.0734489 0.03125 16.1484375 C-1.14630859 16.20209473 -1.14630859 16.20209473 -2.34765625 16.25683594 C-10.69166105 16.71492332 -17.20681819 18.68231264 -23.5 24.375 C-28.00156214 29.9168391 -30.59780572 34.57628647 -30.69287109 41.78930664 C-30.70893402 42.89798599 -30.72499695 44.00666534 -30.74154663 45.14894104 C-30.78614697 50.23429702 -30.82708772 55.31952314 -30.85009766 60.4050293 C-30.86338569 63.08143395 -30.89385558 65.75602097 -30.93212891 68.43237305 C-30.98713416 72.30019934 -31.00881246 76.16699048 -31.0234375 80.03515625 C-31.04610687 81.22093765 -31.06877625 82.40671906 -31.09213257 83.62843323 C-31.06805444 93.18136555 -28.78213752 100.30561271 -22 107.1875 C-18.55375995 109.99942262 -15.12399032 111.36092701 -10.9375 112.8125 C-4.72060532 114.98588595 -1.0076067 117.78621333 2.5 123.375 C3.4300889 126.1652667 3.68698769 128.14029542 3.81640625 131.04296875 C3.85830078 131.93564453 3.90019531 132.82832031 3.94335938 133.74804688 C3.98267578 134.67681641 4.02199219 135.60558594 4.0625 136.5625 C4.10568359 137.50287109 4.14886719 138.44324219 4.19335938 139.41210938 C4.29938665 141.73292854 4.40145029 144.05385325 4.5 146.375 C5.08116577 145.58234741 5.08116577 145.58234741 5.67407227 144.77368164 C7.46889285 142.32731477 9.26568691 139.88240373 11.0625 137.4375 C11.67158203 136.60669922 12.28066406 135.77589844 12.90820312 134.91992188 C14.14579607 133.2370574 15.38887198 131.55821234 16.63720703 129.88330078 C17.86753486 128.22663131 19.08246377 126.55840081 20.28076172 124.87841797 C20.85713379 124.09225098 21.43350586 123.30608398 22.02734375 122.49609375 C22.5287085 121.79798584 23.03007324 121.09987793 23.54663086 120.38061523 C28.48874909 115.30631186 32.29049697 114.14161609 39.27050781 113.89257812 C41.28431793 113.88207545 43.29825028 113.87254278 45.31201935 113.8891449 C47.49195344 113.9065602 49.67057887 113.89881668 51.8505249 113.8848877 C57.26510786 113.85538732 62.67943338 113.86836396 68.09405518 113.88006592 C72.67383091 113.88832553 77.25303074 113.88009962 81.83272552 113.85093689 C83.96155889 113.84392801 86.0893293 113.86041203 88.21807861 113.87805176 C97.49494783 113.83013273 106.18350074 112.81507287 113.875 107.1875 C119.58789378 101.06654237 122.58589414 94.56691463 122.67700195 86.21435547 C122.68983719 85.18583466 122.70267242 84.15731384 122.71589661 83.09762573 C122.72328354 81.99033112 122.73067047 80.8830365 122.73828125 79.7421875 C122.75038887 78.02166672 122.75038887 78.02166672 122.76274109 76.26638794 C122.77656992 73.83711248 122.78729744 71.4078177 122.79516602 68.97851562 C122.81233833 65.28477534 122.8562324 61.59193965 122.90039062 57.8984375 C122.91052169 55.53386072 122.9190365 53.16927636 122.92578125 50.8046875 C122.95204338 49.16196365 122.95204338 49.16196365 122.97883606 47.48605347 C122.9584638 40.19222514 122.27433625 32.18536952 116.86494446 26.72433472 C116.41451279 26.27905426 115.96408112 25.8337738 115.5 25.375 C115.5 24.715 115.5 24.055 115.5 23.375 C112.72788276 21.97639786 109.94440046 20.61338126 107.125 19.3125 C106.03058594 18.80009766 106.03058594 18.80009766 104.9140625 18.27734375 C100.29387719 16.55038128 95.63815177 16.25072828 90.74169922 16.2331543 C89.08000198 16.22260262 89.08000198 16.22260262 87.38473511 16.21183777 C86.2033194 16.20767349 85.02190369 16.20350922 83.8046875 16.19921875 C81.29035606 16.17603685 78.7760331 16.15192021 76.26171875 16.12695312 C72.30706966 16.09173611 68.35273664 16.06242483 64.39794922 16.04907227 C60.57481119 16.03364682 56.75258578 15.99349171 52.9296875 15.94921875 C51.74422333 15.95112717 50.55875916 15.95303558 49.33737183 15.95500183 C48.23587799 15.93851089 47.13438416 15.92201996 45.99951172 15.9050293 C45.03165741 15.89916306 44.0638031 15.89329681 43.06661987 15.88725281 C39.74382386 15.22408036 38.54969545 14.02968495 36.5 11.375 C36 7.875 36 7.875 36.5 4.375 C38.63791052 1.53101209 39.82635005 0.49617443 43.3611908 -0.1396637 C45.02112816 -0.14896156 45.02112816 -0.14896156 46.71459961 -0.15844727 C47.97368637 -0.1742836 49.23277313 -0.19011993 50.53001404 -0.20643616 C51.9041277 -0.20259107 53.27823845 -0.19755001 54.65234375 -0.19140625 C56.07280381 -0.19664716 57.49326039 -0.20292535 58.91371155 -0.21018982 C61.89552126 -0.2206006 64.87685418 -0.21603215 67.85864258 -0.20141602 C71.64456391 -0.18436141 75.42894842 -0.20755043 79.21469784 -0.24290562 C82.15340374 -0.26509827 85.09175563 -0.26338394 88.03051949 -0.2551403 C89.4237084 -0.25433002 90.81692583 -0.26101333 92.21003532 -0.27591133 C105.7557606 -0.39840545 117.60889325 2.72416305 127.5 12.375 C137.58252508 23.63306612 139.80708214 35.29669243 139.8359375 50.046875 C139.8459227 51.84599335 139.8459227 51.84599335 139.85610962 53.68145752 C139.86619483 56.20949785 139.87092793 58.73756458 139.87060547 61.265625 C139.87497086 65.09941277 139.91131608 68.93204099 139.94921875 72.765625 C139.95508956 75.23437111 139.95905718 77.70312263 139.9609375 80.171875 C139.97530853 81.30147644 139.98967957 82.43107788 140.00448608 83.59490967 C139.93061383 96.69435782 136.29032878 107.597522 127.5 117.375 C119.5162851 125.22490962 108.70930209 130.27560605 97.43626404 130.41209412 C96.35184525 130.37334671 95.26742645 130.3345993 94.15014648 130.29467773 C92.91123154 130.25652451 91.67231659 130.21837128 90.39585876 130.17906189 C89.74066694 130.15816938 89.08547512 130.13727688 88.410429 130.11575127 C84.15698208 129.99653768 79.90184208 129.96145674 75.64707851 129.91566372 C71.92669185 129.87102666 68.21264033 129.7940718 64.49487305 129.64477539 C48.56456553 128.44350985 48.56456553 128.44350985 33.94732666 133.0519104 C29.76776875 137.16282307 27.08126991 141.92273367 24.5798645 147.18331909 C23.14991321 150.08553224 21.31894486 152.5589104 19.34375 155.11328125 C18.7765625 155.88994141 18.209375 156.66660156 17.625 157.46679688 C17.08875 158.19962891 16.5525 158.93246094 16 159.6875 C15.4328125 160.47060547 14.865625 161.25371094 14.28125 162.06054688 C6.85128012 172.19935994 6.85128012 172.19935994 2.5 174.375 C-1.73390162 174.78210593 -4.01588352 174.63075965 -7.8125 172.625 C-10.50881366 170.36762112 -11.34256288 169.58051452 -12.5 166.375 C-12.73618702 163.59066968 -12.87207848 160.8964257 -12.9140625 158.109375 C-12.93342865 157.31597717 -12.9527948 156.52257935 -12.9727478 155.70513916 C-13.03238361 153.17853443 -13.07886443 150.65188375 -13.125 148.125 C-13.16319455 146.40883463 -13.20224715 144.69268813 -13.2421875 142.9765625 C-13.33807186 138.77619544 -13.42216167 134.57573866 -13.5 130.375 C-14.72432739 129.88362549 -14.72432739 129.88362549 -15.97338867 129.38232422 C-17.0482251 128.9442041 -18.12306152 128.50608398 -19.23046875 128.0546875 C-20.29418701 127.62397949 -21.35790527 127.19327148 -22.45385742 126.74951172 C-26.67715837 124.84383052 -30.03612942 122.41900748 -33.5 119.375 C-34.42425781 118.58996094 -34.42425781 118.58996094 -35.3671875 117.7890625 C-42.09242743 111.64109638 -46.95219368 102.52292726 -47.76742554 93.37373352 C-47.77504913 92.3188121 -47.78267273 91.26389069 -47.79052734 90.17700195 C-47.80328705 88.97167313 -47.81604675 87.7663443 -47.82919312 86.52449036 C-47.83141876 85.23379135 -47.83364441 83.94309235 -47.8359375 82.61328125 C-47.84237583 81.25815189 -47.84910494 79.90302389 -47.85610962 78.54789734 C-47.86805513 75.71101669 -47.87179351 72.87425752 -47.87060547 70.03735352 C-47.87040297 66.43089541 -47.89764466 62.8252314 -47.93214989 59.21896076 C-47.95457326 56.41937299 -47.95843827 53.61997127 -47.95738602 50.82030296 C-47.96084469 48.85355645 -47.98241601 46.88686803 -48.00448608 44.92024231 C-47.93994949 32.11321404 -44.25438814 21.67026688 -35.5 12.21484375 C-24.9165677 2.10388611 -14.0764091 0.16146038 0 0 Z " fill="#000000" transform="translate(370.5,-0.375)"/>
<path d="M0 0 C0.99592667 -0.00428513 1.99185333 -0.00857025 3.01795959 -0.01298523 C5.11832928 -0.01871268 7.2187188 -0.01924051 9.3190918 -0.01489258 C12.52101681 -0.0117327 15.72201718 -0.03521181 18.92382812 -0.06054688 C20.97005092 -0.06282013 23.01627619 -0.06352324 25.0625 -0.0625 C26.48936378 -0.07631462 26.48936378 -0.07631462 27.9450531 -0.09040833 C34.85896815 -0.04261424 39.81267301 0.63542107 45.00195312 5.60180664 C46.89902918 8.81052387 47.11321327 10.77382481 47.12890625 14.484375 C47.13664062 16.2468457 47.13664062 16.2468457 47.14453125 18.04492188 C47.1290625 19.26373047 47.11359375 20.48253906 47.09765625 21.73828125 C47.12085938 23.56069336 47.12085938 23.56069336 47.14453125 25.41992188 C47.09515222 36.68451338 47.09515222 36.68451338 42.59765625 41.30078125 C39.4871177 43.22431377 37.09618764 43.56044292 33.46533203 43.59130859 C31.93321579 43.61044815 31.93321579 43.61044815 30.37014771 43.62997437 C28.72319412 43.63331284 28.72319412 43.63331284 27.04296875 43.63671875 C25.34151199 43.64670395 25.34151199 43.64670395 23.60568237 43.65689087 C21.20670188 43.66701385 18.80769324 43.671708 16.40869141 43.67138672 C12.7433416 43.67575659 9.07919903 43.71207291 5.4140625 43.75 C3.08203536 43.75586888 0.75000251 43.75983779 -1.58203125 43.76171875 C-3.22291214 43.7832753 -3.22291214 43.7832753 -4.89694214 43.80526733 C-11.01104641 43.76866024 -14.83962387 43.54792935 -19.40234375 39.30078125 C-22.91190121 34.44685475 -21.81282738 27.64124455 -21.83984375 21.92578125 C-21.87271484 20.70632813 -21.90558594 19.486875 -21.93945312 18.23046875 C-21.99967051 8.20153739 -21.99967051 8.20153739 -19.25 4.57421875 C-13.32328352 -0.15739852 -7.25911853 -0.00694036 0 0 Z M-5.40234375 16.30078125 C-5.40234375 19.93078125 -5.40234375 23.56078125 -5.40234375 27.30078125 C6.47765625 27.30078125 18.35765625 27.30078125 30.59765625 27.30078125 C30.59765625 23.67078125 30.59765625 20.04078125 30.59765625 16.30078125 C18.71765625 16.30078125 6.83765625 16.30078125 -5.40234375 16.30078125 Z " fill="#000000" transform="translate(232.40234375,406.69921875)"/>
<path d="M0 0 C0.89948868 -0.0049649 1.79897736 -0.00992981 2.72572327 -0.01504517 C5.70468915 -0.02966372 8.68360179 -0.036468 11.66259766 -0.04199219 C13.73141481 -0.04774353 15.80023195 -0.05350127 17.86904907 -0.05926514 C22.20843759 -0.069774 26.54780758 -0.07561754 30.88720703 -0.07910156 C36.44803077 -0.08458852 42.00860993 -0.10862142 47.56935692 -0.13707352 C51.84329952 -0.15569441 56.11718313 -0.16090519 60.39116287 -0.16243744 C62.44128381 -0.16546532 64.49140367 -0.17349839 66.54148483 -0.18662262 C69.40935656 -0.2036728 72.27662944 -0.20180542 75.14453125 -0.1953125 C75.99146042 -0.20452728 76.83838959 -0.21374207 77.71098328 -0.22323608 C82.80754841 -0.18708119 86.41876144 0.37823409 90.20166016 4.16113281 C90.78768084 11.31058513 90.78768084 11.31058513 88.75598145 14.25938416 C84.94639259 17.09570726 81.54261981 16.72871218 76.90673828 16.69458008 C75.966483 16.70319565 75.02622772 16.71181122 74.05747986 16.72068787 C70.94901007 16.74339349 67.84143837 16.73660079 64.73291016 16.72753906 C62.5734429 16.73277237 60.41397794 16.73904777 58.2545166 16.74632263 C53.72848759 16.75673518 49.20277282 16.7521526 44.67675781 16.73754883 C38.87234717 16.72035464 33.06892579 16.74386026 27.26462555 16.77903843 C22.80537334 16.80098169 18.346359 16.79957844 13.8870697 16.79127312 C11.74681004 16.79045202 9.6065332 16.79734558 7.46632385 16.81204414 C4.47578815 16.82943416 1.48704506 16.81499363 -1.50341797 16.79223633 C-2.38977432 16.80392853 -3.27613068 16.81562073 -4.18934631 16.82766724 C-10.17440646 16.73484268 -10.17440646 16.73484268 -13.35192871 13.81309509 C-15.11009485 10.58953703 -15.33777818 8.78307592 -14.79833984 5.16113281 C-11.39431715 -0.83643098 -6.22004661 0.00817076 0 0 Z " fill="#000000" transform="translate(379.79833984375,72.8388671875)"/>
<path d="M0 0 C0.93064774 -0.0071553 1.86129547 -0.01431061 2.82014465 -0.02168274 C5.8909337 -0.03856737 8.96026252 -0.01916964 12.03100586 0.00219727 C14.16662212 0.00136862 16.30223832 -0.0010906 18.43785095 -0.00511169 C22.91091131 -0.00796945 27.38347086 0.00673105 31.85644531 0.03417969 C37.59236327 0.06828267 43.3273869 0.06223698 49.06334782 0.04351711 C53.47199469 0.03295389 57.88043311 0.04187851 62.28906059 0.05690193 C64.40418313 0.06208777 66.5193274 0.06159709 68.6344471 0.05535698 C71.5888065 0.04991226 74.54188075 0.07025572 77.49609375 0.09765625 C78.37152832 0.09113037 79.24696289 0.08460449 80.14892578 0.07788086 C86.07174859 0.17138178 86.07174859 0.17138178 89.22215271 2.53944397 C90.79388168 4.78932686 91.25116038 5.91199134 91.24584961 8.63110352 C91.26776367 9.29110352 91.28967773 9.95110352 91.31225586 10.63110352 C90.29269317 13.87343952 88.53410285 14.83935416 85.68334961 16.63110352 C82.61333085 17.21849582 79.59286763 17.18814642 76.47436523 17.16455078 C75.09543343 17.17747414 75.09543343 17.17747414 73.68864441 17.19065857 C70.65534163 17.21332831 67.62296188 17.20657815 64.58959961 17.19750977 C62.47879766 17.20274463 60.36799806 17.20902061 58.25720215 17.21629333 C53.83549992 17.22669922 49.41411948 17.22213281 44.99243164 17.20751953 C39.32602272 17.19032547 33.6606272 17.2138342 27.99433136 17.24900913 C23.63626384 17.2709679 19.27843941 17.2695454 14.92033386 17.26124382 C12.83114001 17.26042359 10.74192845 17.26730066 8.65278625 17.28201485 C5.73200127 17.29943373 2.81304533 17.28494047 -0.10766602 17.26220703 C-0.97015457 17.27389923 -1.83264313 17.28559143 -2.7212677 17.29763794 C-7.07196118 17.22873425 -8.8028115 17.02910143 -12.35314941 14.27915955 C-14.31665039 11.63110352 -14.31665039 11.63110352 -14.94165039 8.63110352 C-13.21848324 0.35990121 -7.13173822 -0.0954714 0 0 Z " fill="#000000" transform="translate(379.316650390625,39.368896484375)"/>
</svg>
