<?xml version="1.0" standalone="no"?>
<!DOCTYPE svg PUBLIC "-//W3C//DTD SVG 20010904//EN"
 "http://www.w3.org/TR/2001/REC-SVG-20010904/DTD/svg10.dtd">
<svg version="1.0" xmlns="http://www.w3.org/2000/svg"
 width="160.000000pt" height="160.000000pt" viewBox="0 0 160.000000 160.000000"
 preserveAspectRatio="xMidYMid meet">

<g transform="translate(0.000000,160.000000) scale(0.100000,-0.100000)"
fill="#000000" stroke="none">
<path d="M900 990 l0 -290 -450 0 -450 0 0 -140 0 -140 39 0 c36 0 40 -3 51
-34 24 -74 95 -126 170 -126 46 0 111 31 138 65 l22 28 22 -28 c27 -34 92 -65
138 -65 75 0 146 52 170 126 l12 34 116 0 117 0 25 -53 c68 -143 252 -143 320
0 l25 53 106 0 c68 0 109 4 117 12 14 14 16 124 2 133 -6 4 -10 63 -10 145 l0
139 -70 183 c-39 100 -78 191 -88 201 -37 42 -71 47 -302 47 l-220 0 0 -290z
m320 95 c0 -152 1 -156 25 -180 17 -18 35 -25 64 -25 27 0 44 -6 53 -18 21
-31 53 -42 117 -42 54 0 61 -2 61 -20 0 -16 -7 -20 -35 -20 -46 0 -85 -37 -85
-80 0 -43 39 -80 85 -80 27 0 35 -4 35 -18 0 -10 -5 -23 -11 -29 -13 -13 -4
-33 17 -33 10 0 14 -12 14 -40 l0 -40 -97 0 -98 0 -25 53 c-68 143 -252 143
-320 0 -21 -45 -29 -53 -52 -53 l-28 0 0 390 0 390 140 0 140 0 0 -155z m159
128 c22 -20 46 -71 90 -187 34 -87 61 -160 61 -162 0 -2 -27 -4 -59 -4 -47 0
-63 4 -73 18 -18 26 -51 42 -85 42 -49 0 -53 12 -53 172 l0 148 45 0 c35 0 51
-6 74 -27z m161 -513 c0 -37 -2 -40 -28 -40 -31 0 -52 16 -52 40 0 24 21 40
52 40 26 0 28 -3 28 -40z m-640 -140 l0 -100 -69 0 -69 0 -12 34 c-24 74 -95
126 -170 126 -46 0 -111 -31 -138 -65 l-22 -28 -22 28 c-27 34 -92 65 -138 65
-75 0 -146 -52 -170 -126 -8 -23 -18 -34 -31 -34 -17 0 -19 8 -19 100 l0 100
430 0 430 0 0 -100z m-572 0 c42 -26 72 -76 72 -120 0 -44 -30 -94 -72 -120
-117 -71 -259 71 -188 188 42 68 124 91 188 52z m320 0 c42 -26 72 -76 72
-120 0 -44 -30 -94 -72 -120 -117 -71 -259 71 -188 188 42 68 124 91 188 52z
m600 0 c18 -11 41 -34 52 -52 71 -117 -71 -259 -188 -188 -18 11 -41 34 -52
52 -71 117 71 259 188 188z"/>
<path d="M1020 1160 c-18 -18 -20 -33 -20 -130 0 -129 11 -150 80 -150 69 0
80 21 80 150 0 129 -11 150 -80 150 -27 0 -47 -7 -60 -20z m95 -130 l0 -105
-35 0 -35 0 -3 94 c-1 52 0 101 3 108 3 9 17 13 37 11 l33 -3 0 -105z"/>
<path d="M1364 569 c-10 -17 13 -36 27 -22 12 12 4 33 -11 33 -5 0 -12 -5 -16
-11z"/>
<path d="M1444 569 c-10 -17 13 -36 27 -22 12 12 4 33 -11 33 -5 0 -12 -5 -16
-11z"/>
<path d="M220 480 c-11 -11 -20 -29 -20 -40 0 -26 34 -60 60 -60 26 0 60 34
60 60 0 11 -9 29 -20 40 -11 11 -29 20 -40 20 -11 0 -29 -9 -40 -20z m56 -31
c10 -17 -13 -36 -27 -22 -12 12 -4 33 11 33 5 0 12 -5 16 -11z"/>
<path d="M540 480 c-11 -11 -20 -29 -20 -40 0 -11 9 -29 20 -40 11 -11 29 -20
40 -20 26 0 60 34 60 60 0 11 -9 29 -20 40 -11 11 -29 20 -40 20 -11 0 -29 -9
-40 -20z m56 -31 c10 -17 -13 -36 -27 -22 -12 12 -4 33 11 33 5 0 12 -5 16
-11z"/>
<path d="M1140 480 c-11 -11 -20 -29 -20 -40 0 -26 34 -60 60 -60 11 0 29 9
40 20 11 11 20 29 20 40 0 11 -9 29 -20 40 -11 11 -29 20 -40 20 -11 0 -29 -9
-40 -20z m56 -31 c10 -17 -13 -36 -27 -22 -12 12 -4 33 11 33 5 0 12 -5 16
-11z"/>
</g>
</svg>
