<?xml version="1.0" encoding="UTF-8"?>
<svg version="1.1" xmlns="http://www.w3.org/2000/svg" width="512" height="512">
<path d="M0 0 C1.78108365 0.82115297 3.56222056 1.64219776 5.34510803 2.45942688 C6.61036864 3.03956893 7.87478842 3.62154789 9.13841248 4.20524597 C16.10489166 7.41523862 23.15463677 10.42492125 30.21218872 13.42803955 C33.9427312 15.01553709 37.67047081 16.6095903 41.3984375 18.203125 C42.13282547 18.51686066 42.86721344 18.83059631 43.62385559 19.15383911 C52.16739354 22.80603222 60.69177729 26.50233265 69.20947266 30.21435547 C75.49103884 32.94786659 81.78528634 35.64023288 88.109375 38.2734375 C90.05238494 39.08749273 91.99502042 39.90243474 93.93753052 40.71768188 C95.76598627 41.48059247 97.59961587 42.23106547 99.43334961 42.98120117 C100.53171143 43.44244385 101.63007324 43.90368652 102.76171875 44.37890625 C103.72811279 44.77795166 104.69450684 45.17699707 105.69018555 45.58813477 C108.45271312 47.11911741 109.49887934 48.24625501 111.125 50.9375 C111.50531673 53.56863689 111.50531673 53.56863689 111.51268005 56.61906433 C111.527537 58.35743309 111.527537 58.35743309 111.54269409 60.13092041 C111.53819244 61.39893494 111.5336908 62.66694946 111.52905273 63.97338867 C111.53475705 65.32569442 111.54172155 66.67799535 111.54985046 68.0302887 C111.5678114 71.70469908 111.56660552 75.37887095 111.56090808 79.05331206 C111.55781387 82.13124943 111.56391277 85.20914114 111.56994683 88.287072 C111.58400622 95.56471098 111.58242507 102.84223268 111.57104492 110.11987305 C111.55962145 117.58944425 111.57353806 125.05865398 111.6004414 132.52817744 C111.62274144 138.96416483 111.62920215 145.40004 111.62336498 151.83606321 C111.62002091 155.66910355 111.62223521 159.50191353 111.63961601 163.33492088 C111.79424498 201.01035304 111.79424498 201.01035304 103.3125 216.375 C102.96703125 217.03056885 102.6215625 217.6861377 102.265625 218.36157227 C99.30529926 223.86406419 96.00396722 229.03276145 92.125 233.9375 C91.54492188 234.68128906 90.96484375 235.42507812 90.3671875 236.19140625 C79.21351155 249.60848506 62.59061467 259.38430847 48.125 268.9375 C49.20220222 272.38454711 50.73288967 274.75771251 53 277.5 C59.99124641 286.67135379 60.71345258 297.07728349 60.64257812 308.23974609 C60.64801292 309.6307854 60.65514312 311.02181893 60.66381836 312.4128418 C60.68188364 316.15223087 60.67505752 319.89117319 60.66230202 323.63056898 C60.65209845 327.55952024 60.66158682 331.48843599 60.66784668 335.41738892 C60.67509671 342.00570478 60.6655999 348.59384047 60.64648438 355.18212891 C60.62466626 362.78956059 60.63181317 370.39656422 60.65379 378.00398576 C60.67195501 384.55547217 60.67449861 391.10682997 60.66403532 397.65833342 C60.65781336 401.56298763 60.65692991 405.46744063 60.67018127 409.37208176 C60.68175734 413.03804814 60.67368289 416.70346259 60.65060425 420.36936951 C60.64281835 422.3504969 60.65465419 424.33167115 60.66711426 426.31277466 C60.59273569 434.13168892 59.95743557 437.90386157 54.5625 443.58203125 C49.69118804 447.53997222 46.54112825 448.07340629 40.375 448 C39.39015625 447.99097656 38.4053125 447.98195313 37.390625 447.97265625 C36.64296875 447.96105469 35.8953125 447.94945312 35.125 447.9375 C35.14071045 449.0112085 35.1564209 450.08491699 35.17260742 451.19116211 C35.22729954 455.21110399 35.26149158 459.23101362 35.28979492 463.2512207 C35.30479269 464.98435006 35.32519772 466.71744204 35.35131836 468.45043945 C35.38810203 470.95533525 35.40481651 473.4597252 35.41796875 475.96484375 C35.43345261 476.72772202 35.44893646 477.49060028 35.46488953 478.27659607 C35.46745275 486.64849732 33.06839599 494.8268985 27.125 500.9375 C21.49663254 505.18906524 16.9562421 507.05325254 9.8527832 507.11450195 C8.5574617 507.12733719 7.2621402 507.14017242 5.92756653 507.15339661 C4.51030867 507.16156613 3.09304647 507.16900946 1.67578125 507.17578125 C0.96036856 507.17985678 0.24495586 507.1839323 -0.492136 507.18813133 C-4.28145685 507.20898056 -8.07074165 507.22328518 -11.86010742 507.23266602 C-15.75946094 507.2437066 -19.65824006 507.27808176 -23.55739117 507.31783772 C-26.56786604 507.34408466 -29.57820596 507.35236512 -32.58878517 507.35594749 C-34.02520422 507.36079548 -35.46161797 507.37235817 -36.89792442 507.39098549 C-44.9986429 507.48948273 -50.97813015 507.38549263 -57.875 502.9375 C-58.761875 502.380625 -59.64875 501.82375 -60.5625 501.25 C-65.2367603 496.5757397 -67.58946981 491.36515093 -68.875 484.9375 C-68.875 472.7275 -68.875 460.5175 -68.875 447.9375 C-136.195 447.9375 -203.515 447.9375 -272.875 447.9375 C-272.875 461.4675 -272.875 474.9975 -272.875 488.9375 C-277.40210843 497.99171687 -277.40210843 497.99171687 -281.3125 501.3125 C-282.05371094 501.95960938 -282.79492188 502.60671875 -283.55859375 503.2734375 C-288.04422114 506.4958275 -291.86834057 507.19240836 -297.3425293 507.24389648 C-298.63124435 507.25988388 -299.91995941 507.27587128 -301.24772644 507.29234314 C-302.64821982 507.29872228 -304.048718 507.30411425 -305.44921875 507.30859375 C-306.89785347 507.317571 -308.3464873 507.32669303 -309.79512024 507.33595276 C-312.83047734 507.35241948 -315.86572449 507.36013807 -318.90112305 507.36303711 C-322.76678257 507.36840538 -326.63138939 507.40602897 -330.49675274 507.45178127 C-333.4901748 507.48171898 -336.48334907 507.48876432 -339.47690773 507.48976326 C-340.90051891 507.49393592 -342.32413289 507.50624992 -343.74759483 507.52728081 C-353.4133032 507.65867118 -361.1479796 506.82473809 -368.69999695 500.38011169 C-375.01632959 493.74998564 -376.34264969 485.59926478 -376.16796875 476.74609375 C-376.16372391 475.91537857 -376.15947906 475.08466339 -376.15510559 474.22877502 C-376.13849314 471.61050118 -376.1008763 468.99303585 -376.0625 466.375 C-376.04743053 464.58529768 -376.03374612 462.79558313 -376.02148438 461.00585938 C-375.9886472 456.64943446 -375.93698936 452.29360365 -375.875 447.9375 C-376.62410645 447.95127686 -377.37321289 447.96505371 -378.14501953 447.97924805 C-379.13099121 447.98996338 -380.11696289 448.00067871 -381.1328125 448.01171875 C-382.10879395 448.02549561 -383.08477539 448.03927246 -384.09033203 448.0534668 C-389.39193026 447.83268307 -392.65642254 445.99360046 -396.6875 442.5 C-400.25040311 438.3263135 -401.12466157 435.59542836 -401.14242554 430.10166931 C-401.15095551 428.90884338 -401.15948547 427.71601746 -401.16827393 426.48704529 C-401.16736755 425.18155228 -401.16646118 423.87605927 -401.16552734 422.53100586 C-401.17151326 421.1394108 -401.17831895 419.74781907 -401.18588257 418.35623169 C-401.20355158 414.57690712 -401.20823855 410.79767314 -401.20951414 407.01831126 C-401.21093673 404.65362723 -401.21520854 402.28896613 -401.22050858 399.9242878 C-401.2390176 391.66410998 -401.24717882 383.40399669 -401.24560547 375.14379883 C-401.24440647 367.46281699 -401.26545886 359.78211725 -401.2970928 352.10120672 C-401.32332523 345.49462603 -401.33396973 338.888137 -401.33269465 332.28150469 C-401.3321867 328.34133116 -401.33777546 324.40140789 -401.35905075 320.46128654 C-401.37854894 316.74867426 -401.3784796 313.03654775 -401.36401749 309.32391739 C-401.36095993 307.32813894 -401.37752787 305.33235986 -401.39489746 303.33665466 C-401.3039469 290.19042309 -397.30658701 279.26904641 -387.84375 269.93359375 C-381.45845714 264.57781369 -373.33932659 259.9375 -364.875 259.9375 C-364.6133757 259.04026718 -364.6133757 259.04026718 -364.34646606 258.12490845 C-362.47305239 251.78073854 -360.4127283 245.52150747 -358.2421875 239.2734375 C-357.89315872 238.26391022 -357.54412994 237.25438293 -357.18452454 236.21426392 C-356.04208578 232.9128379 -354.89628449 229.61259256 -353.75 226.3125 C-353.35438873 225.17167969 -352.95877747 224.03085938 -352.55117798 222.85546875 C-345.07582533 201.3013386 -337.51243818 179.77889911 -329.84806824 158.29125977 C-327.89919286 152.82519132 -325.96408115 147.35456163 -324.04283142 141.87872314 C-322.87171719 138.54605789 -321.69185759 135.21653477 -320.50991821 131.88769531 C-319.97258798 130.36851963 -319.4388782 128.84805722 -318.90927124 127.32617188 C-313.338979 111.33324594 -306.91727777 99.05334688 -291.29296875 91.1640625 C-282.22363124 87.90946595 -273.05387468 87.65300397 -263.5090332 87.71044922 C-261.57541679 87.71001114 -261.57541679 87.71001114 -259.60273743 87.70956421 C-256.10344304 87.70899556 -252.60428863 87.72066988 -249.10502648 87.73471212 C-245.43486781 87.74730172 -241.76470514 87.74839642 -238.0945282 87.75076294 C-231.16041753 87.75695371 -224.2263707 87.77333165 -217.29228801 87.79346192 C-209.39134582 87.81589616 -201.49040042 87.82683319 -193.58943427 87.83685279 C-177.35125228 87.85770029 -161.11313431 87.89282901 -144.875 87.9375 C-144.91427612 86.29551636 -144.91427612 86.29551636 -144.9543457 84.62036133 C-145.04503219 80.54846742 -145.10231549 76.47666224 -145.1496582 72.40405273 C-145.17476061 70.64348324 -145.20885028 68.88301753 -145.25219727 67.12280273 C-145.31304115 64.58811821 -145.34125113 62.05481425 -145.36328125 59.51953125 C-145.38908768 58.73600784 -145.4148941 57.95248444 -145.44148254 57.1452179 C-145.44361217 52.97009209 -145.24842602 51.4105414 -142.57034302 48.01805115 C-140.44136623 46.37468142 -138.71684162 45.09042804 -136.26123047 44.06665039 C-135.58337494 43.77681274 -134.90551941 43.4869751 -134.2071228 43.18835449 C-133.47619415 42.89029907 -132.7452655 42.59224365 -131.9921875 42.28515625 C-131.2057486 41.95253784 -130.41930969 41.61991943 -129.60903931 41.27722168 C-126.99385662 40.17376265 -124.37198171 39.08719264 -121.75 38 C-119.89328993 37.21942015 -118.03718268 36.43740506 -116.18164062 35.65405273 C-113.22459225 34.40585965 -110.26717717 33.1586191 -107.30792236 31.91566467 C-96.39919308 27.33182865 -85.54141768 22.63159832 -74.68286133 17.93045044 C-71.39090399 16.50687752 -68.09718912 15.08746064 -64.80273438 13.66967773 C-52.45578438 8.36337478 -52.45578438 8.36337478 -40.14727783 2.96879578 C-38.27420835 2.13950483 -36.39792611 1.31748163 -34.52148438 0.49584961 C-32.44660202 -0.41322758 -30.37685966 -1.33420373 -28.31445312 -2.27124023 C-17.30952171 -7.05314496 -10.60018403 -5.06186336 0 0 Z M-26.58984375 17.06640625 C-27.3728183 17.40359177 -28.15579285 17.74077728 -28.9624939 18.08818054 C-31.58223369 19.2184927 -34.19732089 20.35917988 -36.8125 21.5 C-38.6581859 22.29910654 -40.50413917 23.0975958 -42.3503418 23.89550781 C-46.35683109 25.62874176 -50.3612331 27.36668985 -54.36425781 29.10791016 C-60.04096851 31.57662325 -65.72186679 34.03554844 -71.40397644 36.49180603 C-77.33278783 39.05479663 -83.26022297 41.62096338 -89.1875 44.1875 C-90.32557098 44.68009308 -91.46364197 45.17268616 -92.63619995 45.6802063 C-95.92097955 47.10278464 -99.20477557 48.52760912 -102.48828125 49.953125 C-103.4472934 50.36817795 -104.40630554 50.7832309 -105.39437866 51.21086121 C-112.60508599 54.34537683 -119.74688111 57.61980185 -126.875 60.9375 C-126.96879927 77.36752816 -127.03915235 93.79746833 -127.08224869 110.22770023 C-127.10279861 117.85802775 -127.13077263 125.48818807 -127.17675781 133.1184082 C-127.21685936 139.77559149 -127.24248769 146.43265358 -127.25135398 153.08995432 C-127.2565297 156.60894604 -127.26853222 160.12759131 -127.29792023 163.64647102 C-127.49845528 188.65832419 -125.31280236 209.1150043 -106.875 227.9375 C-97.99543751 235.95316774 -87.84215524 242.60429819 -78.04394531 249.42578125 C-74.49952906 251.89618033 -70.96789336 254.38461822 -67.4375 256.875 C-66.73906982 257.36734131 -66.04063965 257.85968262 -65.32104492 258.36694336 C-60.14649027 262.02169874 -55.00559005 265.72134863 -49.875 269.4375 C-43.8157379 273.8261285 -37.73608723 278.18377755 -31.625 282.5 C-30.9340625 282.98855469 -30.243125 283.47710937 -29.53125 283.98046875 C-28.24340088 284.88804746 -26.95129896 285.78963245 -25.65429688 286.68408203 C-24.49225317 287.50267868 -23.35108594 288.35197909 -22.23632812 289.23388672 C-20.55892461 290.57415727 -20.55892461 290.57415727 -17.875 291.9375 C-13.13691128 291.11046004 -9.03648504 287.40612774 -5.1875 284.625 C-4.44346924 284.09374512 -3.69943848 283.56249023 -2.93286133 283.01513672 C3.12434204 278.68267269 9.15128066 274.30768418 15.18041992 269.9362793 C20.78864645 265.87850939 26.44637331 261.89599474 32.125 257.9375 C40.849341 251.85055413 49.5235888 245.70098787 58.10449219 239.41308594 C59.4057311 238.46278531 60.71079801 237.51769318 62.02050781 236.57910156 C72.68683192 228.93384158 80.47507988 220.6932207 86.5 209 C86.82202393 208.38044434 87.14404785 207.76088867 87.47583008 207.12255859 C92.35362159 197.07784476 93.56883328 186.87052459 93.46557617 175.82519531 C93.46601425 174.57498596 93.46645233 173.32477661 93.46690369 172.03668213 C93.46518677 168.64884889 93.45026928 165.26158209 93.42918181 161.87384892 C93.41027181 158.31848422 93.4086534 154.76310987 93.40510559 151.20770264 C93.39582678 144.49316361 93.37127024 137.77877326 93.34105712 131.06429935 C93.30738243 123.4124344 93.29099444 115.76056189 93.27597082 108.10864115 C93.2447163 92.3848417 93.19203804 76.66119011 93.125 60.9375 C91.52132693 60.13198065 89.91723176 59.32730161 88.31295776 58.52297974 C87.41972242 58.07478441 86.52648708 57.62658909 85.60618401 57.16481209 C82.95934234 55.85555781 80.2898474 54.64265971 77.5703125 53.4921875 C76.56597168 53.06478271 75.56163086 52.63737793 74.52685547 52.19702148 C73.44549316 51.74012939 72.36413086 51.2832373 71.25 50.8125 C68.77571661 49.75986964 66.30174099 48.70653941 63.828125 47.65234375 C63.15832611 47.36720413 62.48852722 47.08206451 61.7984314 46.7882843 C53.14390587 43.10022593 44.51347705 39.35634146 35.87957764 35.62033081 C30.21931927 33.17243913 24.5565137 30.73044909 18.89358521 28.28874207 C14.82007255 26.53224933 10.74704632 24.77469509 6.67675781 23.01074219 C2.99622392 21.41587332 -0.6888908 19.83193959 -4.375 18.25 C-5.41156738 17.79874756 -6.44813477 17.34749512 -7.51611328 16.88256836 C-8.91579346 16.28520874 -8.91579346 16.28520874 -10.34375 15.67578125 C-11.13201172 15.33587158 -11.92027344 14.99596191 -12.73242188 14.64575195 C-17.95302791 12.92002519 -21.87861328 14.99606403 -26.58984375 17.06640625 Z M-294.875 116.9375 C-300.41562948 127.36237453 -303.81876507 139.05767621 -307.62155151 150.19229126 C-309.47327307 155.61258865 -311.34320691 161.02660891 -313.2109375 166.44140625 C-313.59481125 167.55563461 -313.978685 168.66986298 -314.37419128 169.81785583 C-318.4557847 181.65145286 -322.62652451 193.45299933 -326.8125 205.25 C-327.16775757 206.2524173 -327.52301514 207.25483459 -327.88903809 208.28762817 C-331.29126082 217.88751002 -334.70371734 227.48339946 -338.1640625 237.0625 C-338.64593258 238.39932624 -339.12778558 239.73615864 -339.60961914 241.07299805 C-340.46371682 243.43805874 -341.32194348 245.80163456 -342.18530273 248.16333008 C-342.72973022 249.66996216 -342.72973022 249.66996216 -343.28515625 251.20703125 C-343.59590088 252.05885986 -343.90664551 252.91068848 -344.22680664 253.78833008 C-345.01937723 256.04206978 -345.01937723 256.04206978 -344.875 258.9375 C-262.705 258.9375 -180.535 258.9375 -95.875 258.9375 C-99.07120307 256.38053754 -102.27203417 253.86112881 -105.53027344 251.38720703 C-108.32717529 249.25697978 -111.10176109 247.09838517 -113.875 244.9375 C-114.63683594 244.34839844 -115.39867187 243.75929687 -116.18359375 243.15234375 C-131.41225586 230.68138705 -141.04977734 210.1434057 -143.875 190.9375 C-144.11899123 188.14864266 -144.28333974 185.35760239 -144.4375 182.5625 C-144.48068359 181.82644531 -144.52386719 181.09039062 -144.56835938 180.33203125 C-144.67343799 178.53401932 -144.77462093 176.73578042 -144.875 174.9375 C-146.01346375 174.92870064 -146.01346375 174.92870064 -147.17492676 174.91972351 C-154.35413028 174.86163728 -161.53299304 174.78947066 -168.71189117 174.70178509 C-172.40198042 174.6572017 -176.09196233 174.61791988 -179.78222656 174.59106445 C-183.34860852 174.5649103 -186.9145747 174.52442454 -190.48069763 174.47431374 C-192.49228473 174.44969561 -194.50403309 174.43963164 -196.51574707 174.42985535 C-211.40965264 174.19223423 -211.40965264 174.19223423 -216.42028809 169.48612976 C-221.97354067 163.05965803 -221.09237533 157.35997945 -221.125 149.1875 C-221.145625 147.91132813 -221.16625 146.63515625 -221.1875 145.3203125 C-221.19523437 143.46792969 -221.19523437 143.46792969 -221.203125 141.578125 C-221.2124707 140.44922852 -221.22181641 139.32033203 -221.23144531 138.15722656 C-220.68128249 133.18767361 -219.00877997 129.96066729 -215.3125 126.625 C-211.2816387 123.83440372 -208.81774961 123.76107418 -203.8984375 123.62109375 C-202.87056625 123.5899221 -202.87056625 123.5899221 -201.82192993 123.55812073 C-199.63138931 123.49269815 -197.44072811 123.43377446 -195.25 123.375 C-193.7656125 123.33180782 -192.28123722 123.2881933 -190.796875 123.24414062 C-187.15637182 123.13622862 -183.51577805 123.03710219 -179.875 122.9375 C-179.875 117.3275 -179.875 111.7175 -179.875 105.9375 C-192.21910188 105.86783874 -204.56315661 105.81460689 -216.90741539 105.78206348 C-222.64000797 105.76644042 -228.37246556 105.74526355 -234.10498047 105.71118164 C-239.64225203 105.67846839 -245.17939414 105.66062174 -250.71675491 105.65286827 C-252.82415427 105.64734621 -254.93154693 105.63656317 -257.03889084 105.62030983 C-260.00182892 105.59837654 -262.96423926 105.59553971 -265.92724609 105.59692383 C-266.78896423 105.586138 -267.65068237 105.57535217 -268.53851318 105.5642395 C-279.34375632 105.61848229 -287.86243451 108.53881217 -294.875 116.9375 Z M-161.875 105.9375 C-161.875 111.5475 -161.875 117.1575 -161.875 122.9375 C-156.265 122.9375 -150.655 122.9375 -144.875 122.9375 C-144.875 117.3275 -144.875 111.7175 -144.875 105.9375 C-150.485 105.9375 -156.095 105.9375 -161.875 105.9375 Z M-203.875 140.9375 C-203.875 146.2175 -203.875 151.4975 -203.875 156.9375 C-184.405 156.9375 -164.935 156.9375 -144.875 156.9375 C-144.875 151.6575 -144.875 146.3775 -144.875 140.9375 C-164.345 140.9375 -183.815 140.9375 -203.875 140.9375 Z M-377.875 285.9375 C-383.021062 293.52367424 -383.57517522 300.39968307 -383.44262695 309.37353516 C-383.44335709 310.68197388 -383.44408722 311.9904126 -383.44483948 313.33850098 C-383.44626332 316.89599839 -383.41704402 320.45263818 -383.38196969 324.00993776 C-383.35053162 327.73878818 -383.34776181 331.46766225 -383.34184265 335.19662476 C-383.32635506 342.24425709 -383.28539643 349.29149766 -383.2350952 356.33895814 C-383.17904238 364.3680023 -383.15167537 372.397066 -383.12661803 380.42625737 C-383.07447524 396.93024006 -382.98561593 413.4338044 -382.875 429.9375 C-374.955 429.9375 -367.035 429.9375 -358.875 429.9375 C-358.70518097 423.38714108 -358.70518097 423.38714108 -358.57714844 416.8359375 C-358.35569781 410.81248036 -357.61650177 405.81416091 -353.875 400.9375 C-347.60910418 395.49039387 -340.2701156 396.3426253 -332.3125 396.4375 C-330.36053711 396.41429687 -330.36053711 396.41429687 -328.36914062 396.390625 C-327.11166016 396.39578125 -325.85417969 396.4009375 -324.55859375 396.40625 C-323.41962646 396.41076172 -322.28065918 396.41527344 -321.10717773 396.41992188 C-317.07187491 397.06610678 -315.01711411 398.33952064 -311.875 400.9375 C-307.875 406.9375 -307.875 406.9375 -306.875 429.9375 C-217.115 429.9375 -127.355 429.9375 -34.875 429.9375 C-34.545 423.9975 -34.215 418.0575 -33.875 411.9375 C-32.29602639 404.8736707 -30.81229816 401.97991577 -24.875 397.9375 C-20.67871166 395.83935583 -15.22465151 396.71061473 -10.60864258 396.69726562 C-8.58047061 396.68758577 -6.55332358 396.65657468 -4.52539062 396.625 C-3.24212891 396.61984375 -1.95886719 396.6146875 -0.63671875 396.609375 C0.53930908 396.6000293 1.71533691 396.59068359 2.92700195 396.58105469 C6.42852821 396.97133092 8.23626022 397.99694318 11.125 399.9375 C11.785 399.9375 12.445 399.9375 13.125 399.9375 C16.88359172 406.64927092 17.47434388 413.34932651 17.75 420.875 C17.87375 423.865625 17.9975 426.85625 18.125 429.9375 C26.045 429.9375 33.965 429.9375 42.125 429.9375 C42.19452064 412.73463648 42.24802156 395.53182927 42.28043652 378.32885742 C42.29588905 370.34077159 42.31694761 362.35277478 42.35131836 354.36474609 C42.38127025 347.40036044 42.40058673 340.43603927 42.40726548 333.471591 C42.41116797 329.78577882 42.42030543 326.10015111 42.44219017 322.41439819 C42.4664536 318.29441226 42.46696629 314.1747447 42.46557617 310.0546875 C42.476362 308.83980148 42.48714783 307.62491547 42.4982605 306.37321472 C42.46332906 296.80110444 40.95564301 289.93474406 34.125 282.9375 C32.81269984 282.23032921 31.48219288 281.5541439 30.125 280.9375 C27.14093292 283.05568457 24.1636214 285.18316937 21.1875 287.3125 C20.33736328 287.91578125 19.48722656 288.5190625 18.61132812 289.140625 C17.80244141 289.72070312 16.99355469 290.30078125 16.16015625 290.8984375 C15.4112915 291.43259277 14.66242676 291.96674805 13.89086914 292.51708984 C12.00352308 293.83325126 12.00352308 293.83325126 11.125 295.9375 C12.011875 296.47375 12.89875 297.01 13.8125 297.5625 C19.34300564 301.27993893 23.43187225 306.4515598 25.125 312.9375 C25.56302178 317.75499397 25.54353003 322.54074861 25.5 327.375 C25.51160156 328.65955078 25.52320313 329.94410156 25.53515625 331.26757812 C25.50628089 340.60875738 24.71221516 348.2918726 17.96583557 355.27565002 C10.67499039 361.85760176 1.68434479 361.54604829 -7.62109375 361.50390625 C-9.04159448 361.50915364 -10.46209173 361.51543415 -11.88258362 361.52268982 C-14.84710183 361.53304597 -17.81113861 361.52860272 -20.77563477 361.51391602 C-24.54937214 361.49673771 -28.32158536 361.52023431 -32.09515285 361.55540562 C-35.02514983 361.57750916 -37.95478933 361.57590721 -40.88484383 361.5676403 C-42.27493016 361.56682778 -43.66504462 361.57355565 -45.0550518 361.58841133 C-54.36197221 361.67265258 -62.24449566 360.8719965 -69.48069763 354.5302887 C-75.83159511 347.53092021 -76.42975765 340.85703296 -76.22265625 331.7265625 C-75.10349275 319.52893786 -68.56927921 309.55932527 -59.3984375 301.734375 C-55.21155562 298.753004 -50.64860656 296.79340685 -45.875 294.9375 C-56.66134292 283.71481753 -67.16830357 275.93164008 -83.1847229 275.35400391 C-87.67154801 275.27303285 -92.14828317 275.30211153 -96.63486838 275.38466978 C-100.18625534 275.43536719 -103.73727862 275.4094625 -107.28887939 275.39370728 C-114.21708745 275.37458591 -121.14315004 275.4236776 -128.07093664 275.4963218 C-136.15177529 275.57809996 -144.23224405 275.58780583 -152.31343572 275.59432125 C-166.73269702 275.60809138 -181.15100261 275.68185621 -195.56982422 275.79199219 C-209.54121071 275.89862005 -223.51211482 275.96933462 -237.48388672 275.99707031 C-238.34600905 275.99878951 -239.20813139 276.0005087 -240.09637864 276.00228 C-243.56243947 276.00911278 -247.02850042 276.01587434 -250.49456165 276.02249849 C-264.65195467 276.05054222 -278.80925462 276.106794 -292.96654081 276.16735077 C-296.18597711 276.18104789 -299.4054148 276.19361203 -302.62485933 276.20520782 C-311.07865039 276.2361105 -319.53222795 276.27614664 -327.98581739 276.3433243 C-331.47863672 276.37101041 -334.97132039 276.39433601 -338.46423721 276.4049263 C-342.25478324 276.41915182 -346.04473613 276.45177305 -349.83511353 276.48925781 C-350.93209458 276.48938684 -352.02907563 276.48951588 -353.15929854 276.48964882 C-362.82698372 276.62181539 -371.36791351 278.28270184 -377.875 285.9375 Z M-53.875 320.9375 C-57.45550165 325.98745609 -58.93953832 330.64577743 -59.3984375 336.8046875 C-58.76395056 339.38998504 -57.67546415 341.01742911 -55.75723267 342.85494995 C-51.42054138 345.34916092 -45.948372 344.64232731 -41.09375 344.6015625 C-39.22438782 344.60873795 -39.22438782 344.60873795 -37.31726074 344.61605835 C-34.01109018 344.62032782 -30.70609939 344.60024459 -27.40008545 344.57226562 C-25.37653122 344.56250738 -23.35406102 344.57223053 -21.33056641 344.58935547 C-17.43861647 344.62024773 -13.54826685 344.6165018 -9.65625 344.6015625 C-7.84827942 344.61674423 -7.84827942 344.61674423 -6.00378418 344.63223267 C0.59630627 344.58794126 0.59630627 344.58794126 6.38452148 341.71630859 C8.23716104 338.75842622 8.75680516 337.26541991 8.75390625 333.8125 C8.75583984 332.85859375 8.75777344 331.9046875 8.75976562 330.921875 C8.72399414 329.44460938 8.72399414 329.44460938 8.6875 327.9375 C8.70393555 326.46023438 8.70393555 326.46023438 8.72070312 324.953125 C8.67516334 320.45986611 8.59359288 317.70411413 6.21484375 313.8125 C2.31897493 310.31714106 -1.2813765 310.76048291 -6.28515625 310.734375 C-7.12662704 310.72867493 -7.96809784 310.72297485 -8.83506775 310.71710205 C-10.62139629 310.70764298 -12.40774236 310.70111448 -14.1940918 310.69726562 C-16.9025011 310.68762458 -19.61013037 310.65663761 -22.31835938 310.625 C-24.05728718 310.61846324 -25.7962204 310.61321542 -27.53515625 310.609375 C-28.73568382 310.5908548 -28.73568382 310.5908548 -29.96046448 310.57196045 C-39.79177206 310.6100963 -47.24975976 313.62275512 -53.875 320.9375 Z M-340.875 413.9375 C-340.875 419.2175 -340.875 424.4975 -340.875 429.9375 C-335.595 429.9375 -330.315 429.9375 -324.875 429.9375 C-324.875 424.6575 -324.875 419.3775 -324.875 413.9375 C-330.155 413.9375 -335.435 413.9375 -340.875 413.9375 Z M-16.875 413.9375 C-16.875 419.2175 -16.875 424.4975 -16.875 429.9375 C-11.265 429.9375 -5.655 429.9375 0.125 429.9375 C0.125 424.6575 0.125 419.3775 0.125 413.9375 C-5.485 413.9375 -11.095 413.9375 -16.875 413.9375 Z M-357.875 447.9375 C-357.936875 453.609375 -357.99875 459.28125 -358.0625 465.125 C-358.08981201 466.90672607 -358.11712402 468.68845215 -358.14526367 470.52416992 C-358.15403108 471.94709598 -358.16167442 473.3700296 -358.16796875 474.79296875 C-358.18331665 475.52310181 -358.19866455 476.25323486 -358.21447754 477.00549316 C-358.21677338 481.50151234 -357.66711866 484.36896785 -354.875 487.9375 C-352.26352991 489.24323504 -350.31176418 489.08610552 -347.38720703 489.11450195 C-346.23906525 489.12733719 -345.09092346 489.14017242 -343.9079895 489.15339661 C-342.66218109 489.16078354 -341.41637268 489.16817047 -340.1328125 489.17578125 C-338.22023148 489.18788887 -338.22023148 489.18788887 -336.26901245 489.20024109 C-333.56716264 489.21409127 -330.86543525 489.22510527 -328.16357422 489.23266602 C-324.70432083 489.24373384 -321.24571014 489.27813832 -317.78668404 489.31783772 C-314.48545713 489.35027892 -311.18417453 489.35478044 -307.8828125 489.36328125 C-306.02017258 489.38954338 -306.02017258 489.38954338 -304.11990356 489.41633606 C-302.96545746 489.41341049 -301.81101135 489.41048492 -300.62158203 489.4074707 C-299.09840866 489.41627007 -299.09840866 489.41627007 -297.54446411 489.42524719 C-294.1247663 488.80042216 -292.94970534 487.6859526 -290.875 484.9375 C-290.52640191 481.98153811 -290.40690137 479.40017324 -290.484375 476.453125 C-290.48840332 475.7297998 -290.49243164 475.00647461 -290.49658203 474.26123047 C-290.5174464 471.56972744 -290.57329232 468.87858718 -290.625 466.1875 C-290.7075 460.165 -290.79 454.1425 -290.875 447.9375 C-312.985 447.9375 -335.095 447.9375 -357.875 447.9375 Z M-50.875 447.9375 C-53.40921037 477.98711324 -53.40921037 477.98711324 -47.875 487.9375 C-45.26352991 489.24323504 -43.31176418 489.08610552 -40.38720703 489.11450195 C-39.23906525 489.12733719 -38.09092346 489.14017242 -36.9079895 489.15339661 C-35.66218109 489.16078354 -34.41637268 489.16817047 -33.1328125 489.17578125 C-31.22023148 489.18788887 -31.22023148 489.18788887 -29.26901245 489.20024109 C-26.56716264 489.21409127 -23.86543525 489.22510527 -21.16357422 489.23266602 C-17.70432083 489.24373384 -14.24571014 489.27813832 -10.78668404 489.31783772 C-7.48545713 489.35027892 -4.18417453 489.35478044 -0.8828125 489.36328125 C0.97982742 489.38954338 0.97982742 489.38954338 2.88009644 489.41633606 C4.03454254 489.41341049 5.18898865 489.41048492 6.37841797 489.4074707 C7.90159134 489.41627007 7.90159134 489.41627007 9.45553589 489.42524719 C12.85670564 488.80380749 14.0084889 487.61911558 16.125 484.9375 C20.02656664 473.23280009 17.125 460.27533702 17.125 447.9375 C-5.315 447.9375 -27.755 447.9375 -50.875 447.9375 Z " fill="#000000" transform="translate(400.875,5.0625)"/>
<path d="M0 0 C1.03654976 0.45566345 1.03654976 0.45566345 2.09403992 0.92053223 C4.376169 1.92715939 6.64869847 2.9538051 8.921875 3.98046875 C10.52998031 4.69388147 12.13880257 5.40568 13.74829102 6.1159668 C16.31126164 7.24767967 18.87350663 8.38086952 21.43336487 9.51960754 C28.16306774 12.5128656 34.91704627 15.44654252 41.68359375 18.35546875 C42.67970673 18.78381516 43.6758197 19.21216156 44.70211792 19.65348816 C47.67101195 20.92959492 50.6401767 22.20507013 53.609375 23.48046875 C57.32796045 25.07810256 61.04532823 26.67851767 64.76171875 28.28125 C65.57581711 28.63062622 66.38991547 28.98000244 67.22868347 29.33996582 C80.02992465 34.86574713 80.02992465 34.86574713 82.671875 38.16796875 C83.05219173 40.2967968 83.05219173 40.2967968 83.05955505 42.80709839 C83.06945969 43.76006302 83.07936432 44.71302765 83.08956909 45.69487 C83.08506744 46.73899551 83.0805658 47.78312103 83.07592773 48.85888672 C83.08279099 49.96010361 83.08965424 51.0613205 83.09672546 52.19590759 C83.11508188 55.85078704 83.11114017 59.50524039 83.10546875 63.16015625 C83.11002929 65.70305522 83.11533447 68.24595294 83.12135315 70.78884888 C83.13030386 76.13044806 83.12807603 81.47189193 83.11791992 86.81347656 C83.10649221 92.95904101 83.12041959 99.10416633 83.1473164 105.24967277 C83.17230064 111.18329151 83.17462279 117.11677609 83.16819954 123.05044937 C83.16804684 125.56285453 83.17404849 128.07526832 83.18649101 130.58764267 C83.27167468 150.62572746 82.0775842 166.21986909 67.796875 181.60546875 C61.77073073 187.34611042 54.81567065 191.87575822 47.97314453 196.57226562 C44.16438187 199.21326634 40.42046623 201.94257124 36.671875 204.66796875 C28.77580688 210.3895969 20.82333506 216.02721437 12.84667969 221.63574219 C10.5274715 223.26970611 8.2125581 224.90962079 5.8984375 226.55078125 C5.11799072 227.1037085 4.33754395 227.65663574 3.53344727 228.22631836 C2.03062321 229.29123765 0.52847787 230.35711559 -0.97290039 231.42407227 C-1.64571045 231.90030029 -2.31852051 232.37652832 -3.01171875 232.8671875 C-3.60525146 233.28830811 -4.19878418 233.70942871 -4.81030273 234.14331055 C-8.1471874 236.39598948 -10.29856432 236.66016395 -14.328125 236.16796875 C-17.45475469 234.56684422 -20.23780845 232.53866493 -23.078125 230.48046875 C-23.90940918 229.89467041 -24.74069336 229.30887207 -25.59716797 228.70532227 C-28.18546363 226.87482124 -30.75821873 225.02417646 -33.328125 223.16796875 C-34.8775614 222.05593 -36.42703899 220.94394863 -37.9765625 219.83203125 C-40.96698426 217.68010921 -43.95012414 215.51848806 -46.9296875 213.3515625 C-51.20125946 210.25019381 -55.50987187 207.20384975 -59.828125 204.16796875 C-61.93138713 202.68334206 -64.03407409 201.19790337 -66.13671875 199.71240234 C-67.64778581 198.64745023 -69.16093674 197.58545089 -70.67578125 196.52587891 C-86.26417239 185.61083673 -100.5374246 175.06929237 -104.95355225 155.45388794 C-106.47260106 146.18353179 -105.8946446 136.49699343 -105.859375 127.13671875 C-105.86207304 124.6113673 -105.86595805 122.08601686 -105.87097168 119.56066895 C-105.87684332 114.29231737 -105.86876092 109.02417049 -105.84960938 103.75585938 C-105.82775749 97.6746666 -105.83496804 91.59400864 -105.856915 85.51282835 C-105.87726686 79.63680804 -105.87510043 73.76095346 -105.86338806 67.88490295 C-105.86072092 65.39380315 -105.86399005 62.90268965 -105.87330627 60.41160583 C-105.88345345 56.93874689 -105.86799905 53.46692238 -105.84570312 49.99414062 C-105.85380005 48.9665564 -105.86189697 47.93897217 -105.87023926 46.88024902 C-105.8177846 42.47480684 -105.77377526 39.89801728 -103.44116211 36.07681274 C-101.1452326 34.00275014 -99.22112693 32.8896715 -96.359375 31.72265625 C-95.33473145 31.29484863 -94.31008789 30.86704102 -93.25439453 30.42626953 C-92.12372559 29.96978027 -90.99305664 29.51329102 -89.828125 29.04296875 C-87.98157413 28.27508871 -86.13506562 27.50710361 -84.2895813 26.73666382 C-82.9306358 26.16991308 -81.57096905 25.60488931 -80.21066284 25.04141235 C-71.22157448 21.31300586 -62.30045921 17.42641412 -53.37133789 13.55718994 C-50.51052272 12.31783445 -47.64899638 11.08013996 -44.78710938 9.84326172 C-43.87825989 9.45030914 -42.9694104 9.05735657 -42.03302002 8.65249634 C-40.25283424 7.88406633 -38.47188298 7.11740694 -36.69012451 6.35263062 C-32.8337163 4.69577312 -28.98933474 3.02455832 -25.17871094 1.26464844 C-24.55092743 0.97999725 -23.92314392 0.69534607 -23.27633667 0.40206909 C-21.65585696 -0.33500576 -20.04215592 -1.08693671 -18.42919922 -1.84033203 C-11.58708043 -4.02838797 -6.36502463 -2.9341491 0 0 Z M-18.31420898 18.13647461 C-19.30722519 18.56790268 -20.30024139 18.99933075 -21.323349 19.4438324 C-22.39613602 19.91869583 -23.46892303 20.39355927 -24.57421875 20.8828125 C-25.6951442 21.37197647 -26.81606964 21.86114044 -27.97096252 22.36512756 C-31.5722193 23.93840707 -35.16898916 25.52165784 -38.765625 27.10546875 C-42.30252105 28.65488045 -45.84031348 30.20223143 -49.37818909 31.74940491 C-51.57651835 32.71166492 -53.77413475 33.67555628 -55.97080994 34.6415863 C-66.39320122 39.22039022 -76.86050496 43.69374781 -87.328125 48.16796875 C-87.42102233 61.27707808 -87.4919902 74.38610841 -87.53537369 87.49548054 C-87.55620116 93.58345016 -87.58443055 99.67119368 -87.62988281 105.7590332 C-87.67351285 111.63996271 -87.69729847 117.52067545 -87.70763397 123.40175438 C-87.71499456 125.63952227 -87.72936777 127.877279 -87.75104523 130.11495399 C-88.01687036 151.08869356 -88.01687036 151.08869356 -77.31640625 168.515625 C-71.49410113 173.68339647 -65.1007541 178.06291586 -58.71435547 182.49902344 C-55.66805212 184.62962807 -52.66212445 186.81287934 -49.65698242 189.00097656 C-42.35070513 194.32022486 -34.9812081 199.54695346 -27.578125 204.73046875 C-26.32733154 205.60626587 -26.32733154 205.60626587 -25.05126953 206.49975586 C-23.50170302 207.58160917 -21.94899853 208.65898759 -20.39257812 209.73095703 C-19.1004716 210.63035852 -17.82066554 211.54800262 -16.56054688 212.49169922 C-13.7674458 214.65628172 -13.7674458 214.65628172 -10.39428711 214.92138672 C-8.13307944 214.09684615 -6.53030055 213.08029347 -4.59765625 211.6484375 C-3.88601318 211.12693115 -3.17437012 210.6054248 -2.44116211 210.06811523 C-1.68198486 209.50294189 -0.92280762 208.93776855 -0.140625 208.35546875 C1.48637679 207.16193884 3.11399533 205.96924927 4.7421875 204.77734375 C5.5662207 204.17212891 6.39025391 203.56691406 7.23925781 202.94335938 C10.87547899 200.2895456 14.55165582 197.69418723 18.234375 195.10546875 C18.92490967 194.61884766 19.61544434 194.13222656 20.3269043 193.63085938 C23.94725766 191.08056741 27.57222623 188.53693224 31.19921875 185.99609375 C52.84175749 172.02059518 52.84175749 172.02059518 64.671875 150.16796875 C65.40581022 142.40696616 65.13791826 134.56636843 65.0625 126.78125 C65.05502964 124.5101115 65.04934047 122.2389665 65.04534912 119.96781921 C65.03015548 114.02147284 64.99092791 108.07552398 64.9465332 102.1293335 C64.90544482 96.04916764 64.88730922 89.96893687 64.8671875 83.88867188 C64.82442742 71.98159722 64.75625254 60.07481618 64.671875 48.16796875 C58.12447801 45.3239794 51.57683408 42.48055934 45.02890491 39.63779545 C41.98587206 38.31665235 38.94293751 36.99528403 35.90014648 35.67358398 C30.05430124 33.13438182 24.20736798 30.59776446 18.35791016 28.06689453 C14.02864129 26.19329519 9.70587873 24.30586924 5.38818359 22.40576172 C3.48668827 21.57511605 1.58516031 20.74454507 -0.31640625 19.9140625 C-1.17727341 19.53129654 -2.03814056 19.14853058 -2.9250946 18.75416565 C-3.71591934 18.41046432 -4.50674408 18.066763 -5.3215332 17.71264648 C-6.00335159 17.41237045 -6.68516998 17.11209442 -7.38764954 16.80271912 C-11.56538024 15.43613853 -14.49444748 16.46040465 -18.31420898 18.13647461 Z " fill="#000000" transform="translate(395.328125,39.83203125)"/>
<path d="M0 0 C1.19907486 -0.00350464 2.39814972 -0.00700928 3.63356018 -0.01062012 C6.91048485 -0.01789874 10.18724713 -0.01621418 13.46416926 -0.00986195 C16.90153632 -0.00478258 20.33889287 -0.00949888 23.77626038 -0.01263428 C29.54877659 -0.01626878 35.32124157 -0.0114889 41.09375 -0.00195312 C47.75571839 0.0089253 54.41756429 0.00540826 61.0795297 -0.00560594 C66.81050884 -0.0146997 72.54145122 -0.01595373 78.27243525 -0.0107286 C81.69034586 -0.0076197 85.10819902 -0.00716961 88.52610588 -0.01380157 C92.33910242 -0.01888652 96.15186463 -0.01112826 99.96484375 0 C101.08974213 -0.00404846 102.2146405 -0.00809692 103.37362671 -0.01226807 C111.44223075 0.03130542 117.97346545 0.35384798 124.04711914 6.25878906 C127.01595959 10.49998971 128.15674819 14.13990349 128.20825195 19.27368164 C128.2178595 20.05161575 128.22746704 20.82954987 128.23736572 21.63105774 C128.24374054 22.87957771 128.24374054 22.87957771 128.25024414 24.15332031 C128.25594421 25.0189006 128.26164429 25.8844809 128.26751709 26.77629089 C128.27695115 28.60613794 128.28349473 30.43600185 128.28735352 32.26586914 C128.29704825 35.05092353 128.32808196 37.83523619 128.35961914 40.62011719 C128.36615097 42.40201387 128.37140073 44.1839158 128.37524414 45.96582031 C128.38759094 46.79209427 128.39993774 47.61836823 128.41265869 48.46968079 C128.38700481 55.20042348 127.13810463 59.90643039 122.54711914 65.07128906 C117.42024263 69.55730601 113.44680306 70.37722195 106.79216003 70.39923096 C105.75349289 70.4049411 104.71482574 70.41065125 103.64468384 70.41653442 C102.515737 70.41765228 101.38679016 70.41877014 100.22363281 70.41992188 C99.02631027 70.42488678 97.82898773 70.42985168 96.59538269 70.43496704 C93.31838084 70.44705069 90.0414146 70.45452716 86.76439452 70.4589777 C84.714151 70.4619154 82.66391299 70.46602149 80.61367226 70.47048187 C74.19042335 70.48414457 67.76718713 70.49381744 61.3439247 70.49768376 C53.94483813 70.50216278 46.54593645 70.51970845 39.14690608 70.54868436 C33.41678754 70.57034092 27.68672087 70.58039014 21.95656186 70.58172488 C18.53911135 70.58277 15.12183492 70.58861492 11.70442772 70.60654449 C7.88907273 70.62362113 4.07416689 70.62172048 0.25878906 70.61523438 C-0.86408508 70.62444916 -1.98695923 70.63366394 -3.14385986 70.64315796 C-9.67122185 70.60844212 -16.30828444 70.48942852 -21.47109699 65.91301346 C-26.77672064 59.93307124 -27.2692636 54.48879883 -27.28881836 46.86425781 C-27.29547516 45.95807205 -27.30213196 45.05188629 -27.30899048 44.11824036 C-27.31909524 42.20441714 -27.32380817 40.29055885 -27.32348633 38.37670898 C-27.32785076 35.4663606 -27.36416882 32.55754043 -27.40209961 29.64746094 C-27.40797018 27.78223171 -27.41193797 25.91699533 -27.41381836 24.05175781 C-27.42818939 23.19003464 -27.44256042 22.32831146 -27.45736694 21.44047546 C-27.40457948 14.37045419 -25.63892624 8.94483445 -20.57788086 3.88378906 C-13.9370163 -0.22722233 -7.58078505 -0.02723392 0 0 Z M-8.95288086 18.25878906 C-8.95288086 29.47878906 -8.95288086 40.69878906 -8.95288086 52.25878906 C30.31711914 52.25878906 69.58711914 52.25878906 110.04711914 52.25878906 C110.04711914 41.03878906 110.04711914 29.81878906 110.04711914 18.25878906 C70.77711914 18.25878906 31.50711914 18.25878906 -8.95288086 18.25878906 Z " fill="#000000" transform="translate(179.952880859375,348.7412109375)"/>
<path d="M0 0 C1.37834267 -0.00855011 1.37834267 -0.00855011 2.78453064 -0.01727295 C4.72865659 -0.02670321 6.67279837 -0.03324907 8.61694336 -0.03710938 C11.55546956 -0.04676208 14.49327993 -0.07778238 17.43164062 -0.109375 C33.82576414 -0.20310104 47.1890933 1.36041957 59.77734375 12.828125 C68.49951141 22.04466654 72.07881238 33.81131698 71.84375 46.23828125 C71.08791542 53.32073123 67.6397529 59.31299451 62.52734375 64.203125 C54.61660853 69.65349553 46.99369814 69.93190857 37.6484375 69.83203125 C36.22697264 69.83286212 34.8055079 69.83532968 33.38404846 69.83934021 C30.42118016 69.84218138 27.45907484 69.82766284 24.49633789 69.80004883 C20.72154308 69.76593617 16.94810766 69.77200999 13.17324734 69.7907114 C10.24328006 69.80133916 7.3136227 69.79229228 4.38368416 69.77732658 C2.99279771 69.77218859 1.6018783 69.77257258 0.21099663 69.77887154 C-8.93676535 69.80476306 -16.51935459 69.27490688 -23.77734375 63.30859375 C-24.29554687 62.67566406 -24.81375 62.04273438 -25.34765625 61.390625 C-25.88132812 60.76542969 -26.415 60.14023437 -26.96484375 59.49609375 C-31.79477054 52.15110145 -31.97162037 45.41382768 -31.91870117 36.86987305 C-31.91018854 34.77357763 -31.93900842 32.68001177 -31.97070312 30.58398438 C-32.00925171 23.10528139 -31.60834022 17.56212779 -27.47265625 11.203125 C-26.63734375 9.8728125 -26.63734375 9.8728125 -25.78515625 8.515625 C-18.323445 1.05391375 -10.05249827 0.04870693 0 0 Z M-12.47265625 21.203125 C-14.45949022 25.17679295 -13.74521753 30.14632938 -13.78515625 34.515625 C-13.81416016 35.56169922 -13.84316406 36.60777344 -13.87304688 37.68554688 C-13.88142578 38.69810547 -13.88980469 39.71066406 -13.8984375 40.75390625 C-13.91302002 41.67856689 -13.92760254 42.60322754 -13.94262695 43.5559082 C-13.31391905 47.09724836 -11.97744336 48.64648129 -9.47265625 51.203125 C-6.78313509 51.95470872 -6.78313509 51.95470872 -3.77368164 51.85009766 C-2.62891861 51.86585846 -1.48415558 51.88161926 -0.30470276 51.89785767 C0.92764603 51.88773651 2.15999481 51.87761536 3.4296875 51.8671875 C4.69953995 51.87197113 5.9693924 51.87675476 7.27772522 51.88168335 C9.96425508 51.88508722 12.64851178 51.87837341 15.3347168 51.85498047 C18.76953799 51.82651875 22.20240353 51.84287893 25.63715267 51.87284279 C28.92223328 51.89531037 32.2070813 51.87955343 35.4921875 51.8671875 C37.33767433 51.88236923 37.33767433 51.88236923 39.22044373 51.89785767 C46.06429358 52.03539256 46.06429358 52.03539256 51.80688477 48.86083984 C54.15329551 45.23617298 54.15855409 43.48132839 53.52734375 39.203125 C51.55900914 32.01291444 48.56050182 26.65138801 42.52734375 22.203125 C33.66117002 17.26666627 24.14547087 17.61886993 14.30957031 17.73657227 C11.63674887 17.76579551 8.96588506 17.75709459 6.29296875 17.74414062 C4.58202166 17.75037196 2.87108077 17.75875816 1.16015625 17.76953125 C0.36739288 17.76659561 -0.42537048 17.76365997 -1.24215698 17.76063538 C-5.81029331 17.83841888 -8.85083287 18.34229541 -12.47265625 21.203125 Z " fill="#000000" transform="translate(65.47265625,297.796875)"/>
<path d="M0 0 C2.9375 2 2.9375 2 5 5 C5.54731751 9.90558657 5.59415803 11.99981414 3.05078125 16.28125 C2.15745966 17.37040485 1.24331848 18.44271162 0.3125 19.5 C-0.17863281 20.09039062 -0.66976562 20.68078125 -1.17578125 21.2890625 C-2.22728391 22.55192248 -3.28661675 23.80829713 -4.35302734 25.05859375 C-7.1251775 28.32632841 -9.80483763 31.66876482 -12.5 35 C-13.60411117 36.35421191 -14.70827753 37.70837884 -15.8125 39.0625 C-18.7492198 42.67692437 -21.63393681 46.32942785 -24.5 50 C-28.44195046 55.04846287 -32.45030922 60.03756894 -36.5 65 C-40.56749038 69.98531986 -44.5974841 74.99525141 -48.5625 80.0625 C-52.55137039 85.15469062 -56.54343056 90.2440841 -60.5625 95.3125 C-61.07562744 95.96549072 -61.58875488 96.61848145 -62.11743164 97.29125977 C-66.50788052 102.81205505 -66.50788052 102.81205505 -71.56640625 103.44921875 C-77.21843122 103.36140301 -80.67331875 100.21752704 -84.9375 96.8125 C-85.7521875 96.18625732 -86.566875 95.56001465 -87.40625 94.91479492 C-89.10094914 93.60988313 -90.7895542 92.29702108 -92.47216797 90.9765625 C-94.93300734 89.05238291 -97.41566877 87.16153209 -99.91015625 85.28125 C-105.78246521 80.84625798 -105.78246521 80.84625798 -108.65625 78.64453125 C-109.23181641 78.20471924 -109.80738281 77.76490723 -110.40039062 77.31176758 C-114.92210109 73.60371655 -114.92210109 73.60371655 -115.5 69.125 C-115.3531393 65.80839575 -114.94302627 64.9145394 -113 62 C-109.88587347 59.92391565 -107.98742026 59.41830082 -104.26953125 59.51855469 C-99.61168229 60.50664399 -96.14903626 63.71397108 -92.5 66.625 C-91.69691406 67.24246094 -90.89382813 67.85992187 -90.06640625 68.49609375 C-88.47587557 69.72057037 -86.89108103 70.95253896 -85.3125 72.19238281 C-81.91481769 74.84825695 -78.46016271 77.42635484 -75 80 C-70.86465366 78.14500334 -68.72899327 75.43812112 -66.0625 71.875 C-65.08601026 70.60050794 -64.10808737 69.32711296 -63.12890625 68.0546875 C-62.36344482 67.05646973 -62.36344482 67.05646973 -61.58251953 66.03808594 C-58.94719914 62.64412503 -56.22196897 59.32456076 -53.5 56 C-49.44938597 51.03833997 -45.44193366 46.04844135 -41.5 41 C-37.02451044 35.26823267 -32.45797506 29.61588766 -27.85351562 23.98730469 C-25.16459709 20.69281728 -22.50491469 17.38192594 -19.90625 14.015625 C-19.41576172 13.38140625 -18.92527344 12.7471875 -18.41992188 12.09375 C-17.50449597 10.90508143 -16.59394834 9.71263209 -15.68945312 8.515625 C-11.19125398 2.67708882 -7.73707615 -1.24345867 0 0 Z " fill="#000000" transform="translate(439,102)"/>
<path d="M0 0 C1.19302734 -0.02900391 2.38605469 -0.05800781 3.61523438 -0.08789062 C4.76185547 -0.09626953 5.90847656 -0.10464844 7.08984375 -0.11328125 C8.13906006 -0.12786377 9.18827637 -0.14244629 10.26928711 -0.1574707 C13.76873748 0.43132765 14.90218579 1.55256794 17.0625 4.3125 C18.27080867 8.01797992 18.21560273 9.84418575 17 13.5625 C14.53778461 17.05725733 13.18214663 17.2954185 9.0625 18.3125 C5.22207836 18.6465656 1.37277377 18.67822521 -2.48046875 18.703125 C-3.25261719 18.72632813 -4.02476562 18.74953125 -4.8203125 18.7734375 C-5.51527832 18.78165527 -6.21024414 18.78987305 -6.92626953 18.79833984 C-9.83418659 19.54173306 -10.97930288 21.06563185 -12.9375 23.3125 C-14.20170196 25.86922547 -14.20170196 25.86922547 -15.12890625 28.75073242 C-15.70161255 30.39394722 -15.70161255 30.39394722 -16.28588867 32.07035828 C-16.88687378 33.85117546 -16.88687378 33.85117546 -17.5 35.66796875 C-18.15594741 37.56429613 -18.81189876 39.46062216 -19.46803284 41.35688496 C-20.15974237 43.36286257 -20.84578646 45.37069761 -21.53027344 47.37915039 C-22.93629111 51.5029466 -24.36070871 55.62022344 -25.7890625 59.73632812 C-27.66202025 65.13697475 -29.53087498 70.53900746 -31.39453125 75.94287109 C-37.53379509 93.73933551 -37.53379509 93.73933551 -40.21289062 101.2640686 C-40.69171414 102.61767671 -41.16449076 103.97344075 -41.63085938 105.33139038 C-42.2601966 107.16348724 -42.91071087 108.98826998 -43.5625 110.8125 C-43.90539062 111.7921875 -44.24828125 112.771875 -44.6015625 113.78125 C-46.23891091 116.88359436 -48.02579318 118.38925279 -50.9375 120.3125 C-54.85321107 120.79197482 -57.64595809 120.5460463 -60.9375 118.3125 C-63.46960101 114.51434849 -63.5010373 111.70204212 -62.9375 107.3125 C-61.8740067 103.22815518 -60.45914496 99.29329656 -59.01953125 95.328125 C-58.61052078 94.17048141 -58.20151031 93.01283783 -57.78010559 91.82011414 C-56.67676739 88.705538 -55.5625272 85.59533518 -54.44220734 82.48685837 C-53.28440461 79.26813003 -52.13878013 76.04507105 -50.99169922 72.82250977 C-49.38812371 68.32149576 -47.7792217 63.8224459 -46.1640892 59.32556629 C-44.02969838 53.38202587 -41.91972551 47.43094666 -39.84495544 41.46633911 C-38.68849667 38.14215605 -37.52145836 34.82175425 -36.35214233 31.5020752 C-35.83213131 30.01899371 -35.31641187 28.53439939 -34.80532837 27.04821777 C-28.29883151 8.1698536 -28.29883151 8.1698536 -19.75 3.375 C-19.09644531 2.99472656 -18.44289062 2.61445313 -17.76953125 2.22265625 C-12.14255912 -0.5728331 -6.14370516 0.04962605 0 0 Z " fill="#000000" transform="translate(144.9375,127.6875)"/>
</svg>
