<?xml version="1.0" encoding="UTF-8"?>
<svg version="1.1" xmlns="http://www.w3.org/2000/svg" width="512" height="512">
<path d="M0 0 C0.57234375 0.47824219 1.1446875 0.95648438 1.734375 1.44921875 C13.74292467 12.38360916 21.08188089 29.65996236 29.02392578 43.54785156 C32.19104483 49.08072324 35.37633133 54.60308276 38.5625 60.125 C39.18261963 61.20023926 39.80273926 62.27547852 40.44165039 63.38330078 C46.92184227 74.61179978 53.45805675 85.8074037 60 97 C67.83657983 110.40758718 75.64278608 123.83159279 83.39428711 137.28857422 C88.14546051 145.53197379 92.93289619 153.75363822 97.73486328 161.9675293 C101.97830095 169.23205189 106.18122717 176.51921992 110.375 183.8125 C115.49278664 192.7090132 120.68657582 201.55646839 125.9375 210.375 C132.1199283 220.76178039 138.16066018 231.22016389 144.13818359 241.72558594 C148.96518576 250.20669453 153.85669853 258.64789273 158.78613281 267.06982422 C163.0150996 274.29879659 167.20071839 281.55183921 171.375 288.8125 C176.49271117 297.70905577 181.68657657 306.55646964 186.9375 315.375 C193.11434031 325.7523923 199.16416306 336.19385233 205.11621094 346.70141602 C208.32920589 352.36390229 211.57774613 357.99576843 214.94140625 363.5703125 C225.5386465 381.16086224 233.4638053 397.04290412 229.40625 418.078125 C226.475269 426.70823573 219.18669319 434.53338826 211.29296875 438.9765625 C197.77728472 445.00911653 184.30980997 445.14832546 169.83258057 445.13371277 C168.07691262 445.13558246 166.32124509 445.1378838 164.56557822 445.14057809 C159.75393514 445.14668285 154.94230947 445.14656406 150.13066339 445.14538372 C144.93624766 445.14517938 139.74183746 445.15070164 134.54742432 445.15544128 C124.37547412 445.16374107 114.20352972 445.16649582 104.03157642 445.16705366 C95.76197368 445.16752913 87.49237284 445.16958541 79.22277069 445.17275429 C55.76800958 445.18155892 32.31325304 445.18617395 8.85849026 445.18542381 C7.59453418 445.18538386 6.33057809 445.1853439 5.02832031 445.18530273 C3.76281797 445.18526185 2.49731563 445.18522097 1.19346473 445.18517885 C-19.31547709 445.18477241 -39.82440054 445.19434209 -60.33333704 445.2084411 C-81.40050723 445.2228094 -102.46766847 445.22971104 -123.53484368 445.22884732 C-135.35894817 445.22851552 -147.18303341 445.23125545 -159.00713348 445.24202538 C-169.07424151 445.25113632 -179.14132156 445.25330071 -189.20843193 445.24651595 C-194.34215008 445.24325381 -199.47581456 445.24318308 -204.60952759 445.2518692 C-209.31489021 445.25974851 -214.02015674 445.25828815 -218.72551706 445.24958507 C-220.42196922 445.24805324 -222.1184286 445.24985421 -223.81487224 445.25544515 C-241.21476956 445.3089627 -258.75788264 444.64725662 -272 432 C-280.04372948 423.36376366 -282.64727709 414.31809207 -282.46166992 402.73242188 C-281.60699519 382.25416069 -266.73793704 363.43074611 -256.66796875 346.265625 C-252.93674029 339.90228965 -249.24521942 333.51650445 -245.5625 327.125 C-244.94020508 326.04524902 -244.31791016 324.96549805 -243.67675781 323.85302734 C-242.41471274 321.66285466 -241.15283148 319.47258757 -239.89111328 317.28222656 C-236.76319852 311.85340058 -233.63141552 306.42680719 -230.5 301 C-229.24998121 298.83334417 -227.99998122 296.6666775 -226.75 294.5 C-214.25 272.83333333 -201.75 251.16666667 -189.25 229.5 C-188.63116943 228.42733887 -188.01233887 227.35467773 -187.37475586 226.24951172 C-186.12564482 224.08442929 -184.87645871 221.91939018 -183.62719727 219.75439453 C-180.48797691 214.31384294 -177.35009437 208.87252784 -174.21484375 203.4296875 C-167.59777108 191.9455118 -160.95366023 180.47803106 -154.26708984 169.03417969 C-148.10080946 158.47379718 -141.9950405 147.87873234 -135.89111328 137.28222656 C-132.76319852 131.85340058 -129.63141552 126.42680719 -126.5 121 C-125.24998121 118.83334417 -123.99998122 116.6666775 -122.75 114.5 C-115.25 101.5 -107.75 88.5 -100.25 75.5 C-99.32151245 73.8905249 -99.32151245 73.8905249 -98.37426758 72.24853516 C-97.12693452 70.08662116 -95.8793767 67.92483683 -94.6315918 65.76318359 C-91.46391168 60.27485415 -88.30043239 54.78417467 -85.14453125 49.2890625 C-82.02795095 43.86451959 -78.89903426 38.44729311 -75.75927734 33.03613281 C-74.61024229 31.05314643 -73.46458133 29.06820005 -72.32275391 27.08105469 C-62.23776093 9.55651265 -52.52899001 -5.15155595 -32.0625 -10.8125 C-19.57276143 -11.57717787 -9.44103295 -8.15181627 0 0 Z M-38 22 C-43.22219645 29.2992064 -47.54990943 37.27843414 -52 45.0625 C-52.98571612 46.7788868 -53.9714363 48.49527128 -54.95739746 50.21151733 C-55.97105824 51.97667575 -56.98365132 53.74244332 -57.99609375 55.50830078 C-61.15292738 61.0119508 -64.32755119 66.50534202 -67.5 72 C-68.75007993 74.16662055 -70.00007976 76.33328732 -71.25 78.5 C-82.5 98 -82.5 98 -93.75 117.5 C-94.36883057 118.57266113 -94.98766113 119.64532227 -95.62524414 120.75048828 C-96.87435518 122.91557071 -98.12354129 125.08060982 -99.37280273 127.24560547 C-102.51202309 132.68615706 -105.64990563 138.12747216 -108.78515625 143.5703125 C-115.40222892 155.0544882 -122.04633977 166.52196894 -128.73291016 177.96582031 C-134.89919054 188.52620282 -141.0049595 199.12126766 -147.10888672 209.71777344 C-150.23680148 215.14659942 -153.36858448 220.57319281 -156.5 226 C-157.75001879 228.16665583 -159.00001878 230.3333225 -160.25 232.5 C-177.75 262.83333333 -195.25 293.16666667 -212.75 323.5 C-213.36883057 324.57266113 -213.98766113 325.64532227 -214.62524414 326.75048828 C-215.87435518 328.91557071 -217.12354129 331.08060982 -218.37280273 333.24560547 C-221.51202309 338.68615706 -224.64990563 344.12747216 -227.78515625 349.5703125 C-228.4100293 350.6545752 -229.03490234 351.73883789 -229.67871094 352.85595703 C-230.92610214 355.02062373 -232.17285588 357.1856579 -233.41894531 359.35107422 C-236.56693111 364.8139509 -239.73788391 370.26158808 -242.94921875 375.6875 C-243.58722412 376.7688623 -244.22522949 377.85022461 -244.88256836 378.96435547 C-246.0901895 381.00826491 -247.30290576 383.04917623 -248.52172852 385.08642578 C-253.03633703 392.73701402 -257.1768433 399.87946442 -256 409 C-252.67410966 414.50850587 -249.08449563 416.30790366 -243 418 C-239.20369571 418.44158815 -239.20369571 418.44158815 -235.25723171 418.37752342 C-234.51734395 418.38188374 -233.7774562 418.38624407 -233.0151476 418.39073652 C-230.54615883 418.40164873 -228.07773369 418.39128992 -225.60874939 418.38095093 C-223.81666754 418.38440908 -222.02458782 418.38917471 -220.23251253 418.39513266 C-215.31576056 418.40765048 -210.3991834 418.40146868 -205.48243082 418.39217401 C-200.17699081 418.38538714 -194.87158089 418.39586292 -189.56614685 418.40411377 C-179.17613974 418.41745687 -168.78619762 418.41457086 -158.39618795 418.40587585 C-149.95297346 418.39910236 -141.50977718 418.39818113 -133.06656075 418.4014473 C-131.86515895 418.401907 -130.66375715 418.40236669 -129.42594923 418.40284032 C-126.98538362 418.40379949 -124.54481801 418.40477213 -122.10425241 418.4057581 C-99.21694192 418.41431359 -76.32966748 418.40447516 -53.44236291 418.388357 C-33.79936647 418.37495197 -14.15642322 418.37728314 5.48657227 418.39111328 C28.29320398 418.40716332 51.0998041 418.4134914 73.90644068 418.40427649 C76.33775262 418.40332083 78.76906456 418.40237772 81.20037651 418.4014473 C82.39665548 418.40098447 83.59293445 418.40052164 84.8254643 418.40004479 C93.26011096 418.39745331 101.69473761 418.40182929 110.12938118 418.40888596 C120.40604144 418.41729467 130.68263295 418.41503395 140.95928533 418.39904372 C146.20366168 418.39115284 151.44792335 418.38808341 156.69229889 418.39799118 C161.4918066 418.40692147 166.29109315 418.40203266 171.09058075 418.38605852 C172.82800293 418.38270369 174.56544373 418.38442054 176.30285395 418.39168589 C178.66319309 418.40080005 181.02277335 418.39146057 183.38307285 418.37752342 C184.69446722 418.37703637 186.00586158 418.37654931 187.35699517 418.37604749 C193.38527341 417.75378125 198.02410134 415.74049456 202 411 C203.84636467 407.30727066 203.69046119 403.9554327 203 400 C197.28558985 385.19365292 187.96899177 371.51015396 180.03497314 357.79138184 C178.39290979 354.94921875 176.75723631 352.10338695 175.12109375 349.2578125 C168.54363234 337.82594403 161.92044523 326.42138464 155.2668457 315.03369141 C149.1005487 304.47352916 142.99494961 293.87857454 136.89111328 283.28222656 C133.76319852 277.85340058 130.63141552 272.42680719 127.5 267 C126.24998121 264.83334417 124.99998122 262.6666775 123.75 260.5 C123.13125 259.4275 122.5125 258.355 121.875 257.25 C71.25 169.49999999 71.25 169.49999999 69.37475586 166.24951172 C68.12564482 164.08442929 66.87645871 161.91939018 65.62719727 159.75439453 C62.48797691 154.31384294 59.35009437 148.87252784 56.21484375 143.4296875 C50.16944841 132.93767906 44.10889781 122.45518324 38 112 C29.3262248 97.15511114 20.74811017 82.25520302 12.17578125 67.3515625 C9.06463386 61.94469905 5.94584455 56.54232108 2.81982422 51.14404297 C1.60345818 49.04257237 0.38894856 46.94002617 -0.82373047 44.83642578 C-2.56255698 41.82406592 -4.3111408 38.81758661 -6.0625 35.8125 C-6.57441895 34.92208008 -7.08633789 34.03166016 -7.61376953 33.11425781 C-13.58432043 22.8075438 -13.58432043 22.8075438 -23 16 C-29.75284272 14.85329086 -33.39633934 17.4195656 -38 22 Z " fill="#000000" transform="translate(282,39)"/>
<path d="M0 0 C3.80809131 0.03461901 6.34964536 0.16178326 9.375 2.5625 C13.5494975 7.37922788 14.06330991 11.24179517 14.07992554 17.53488159 C14.08445665 18.24475287 14.08898776 18.95462414 14.09365618 19.68600667 C14.1062915 22.05880415 14.1046804 24.43137186 14.10302734 26.80419922 C14.10901312 28.50784601 14.11581878 30.2114901 14.12338257 31.91513062 C14.14104419 36.53913853 14.145738 41.16307242 14.14701414 45.78711081 C14.14843613 48.67691028 14.15270663 51.56669095 14.15800858 54.45648575 C14.17650893 64.54050135 14.18467912 74.62446409 14.18310547 84.70849609 C14.18190386 94.10446091 14.20301002 103.50019609 14.2345928 112.89610279 C14.26075306 120.96674551 14.27147288 129.03731322 14.27019465 137.10799801 C14.26968497 141.92662259 14.27537155 146.74504304 14.29655075 151.56362534 C14.31592909 156.09616581 14.31606043 160.62830734 14.30151749 165.16086197 C14.29942783 166.822091 14.30413968 168.48334497 14.3162384 170.14453125 C14.33171557 172.4172046 14.32236812 174.68850651 14.30697632 176.96115112 C14.30806585 178.23134031 14.30915539 179.5015295 14.31027794 180.81020927 C13.58795983 185.98302368 11.59989108 189.79188218 7.625 193.3125 C3.61156179 194.82868777 0.04728537 195.06091594 -4.1875 194.375 C-7.9901029 192.3699912 -9.80540841 190.94813738 -12.1875 187.375 C-13.28726202 183.3638452 -13.31561771 179.50430266 -13.32121277 175.36024475 C-13.32347833 174.66600212 -13.32574388 173.97175949 -13.32807809 173.2564792 C-13.33439412 170.93667547 -13.33359028 168.61693051 -13.33276367 166.29711914 C-13.33575662 164.63126042 -13.33915946 162.9654024 -13.34294128 161.29954529 C-13.35177073 156.77891781 -13.35411893 152.25830926 -13.35475707 147.737674 C-13.35546806 144.91288192 -13.3576033 142.08809464 -13.36025429 139.26330376 C-13.36950354 129.40738494 -13.37358962 119.55147965 -13.37280273 109.69555664 C-13.37220174 100.50981711 -13.3827589 91.32413626 -13.3985464 82.13841158 C-13.41162166 74.24953213 -13.41698665 66.36067187 -13.41634732 58.47178167 C-13.41609237 53.76112043 -13.4189421 49.05051136 -13.42952538 44.33986092 C-13.43920634 39.91001597 -13.43928554 35.48027312 -13.43200874 31.05042458 C-13.43096297 29.42586874 -13.43332538 27.80130655 -13.4393692 26.17676163 C-13.44709306 23.95663414 -13.44244191 21.73685886 -13.43473816 19.51673889 C-13.43528293 18.27512528 -13.43582769 17.03351168 -13.43638897 15.75427341 C-12.95195859 9.17695219 -11.06905605 5.75588363 -6.1875 1.375 C-4.47710219 -0.33539781 -2.33656044 0.08198458 0 0 Z " fill="#000000" transform="translate(255.1875,147.625)"/>
<path d="M0 0 C5.62190491 3.35174881 9.56334243 8.22193737 11.5625 14.4375 C12.39974732 22.04087387 12.40834412 29.2172498 7.5625 35.4375 C3.28240833 39.9711516 -0.95385428 43.07204943 -7.3046875 43.73828125 C-15.0188468 43.76833642 -19.44228844 42.81560212 -26.0625 38.875 C-31.05472876 33.7513968 -33.72995301 27.92519589 -33.9375 20.75 C-33.54412086 13.20137323 -30.77561452 7.77561452 -25.4375 2.4375 C-18.36577625 -2.98807428 -8.08607897 -3.58519048 0 0 Z " fill="#000000" transform="translate(266.4375,371.5625)"/>
</svg>
