<?xml version="1.0" standalone="no"?>
<!DOCTYPE svg PUBLIC "-//W3C//DTD SVG 20010904//EN"
 "http://www.w3.org/TR/2001/REC-SVG-20010904/DTD/svg10.dtd">
<svg version="1.0" xmlns="http://www.w3.org/2000/svg"
 width="512.000000pt" height="512.000000pt" viewBox="0 0 512.000000 512.000000"
 preserveAspectRatio="xMidYMid meet">

<g transform="translate(0.000000,512.000000) scale(0.100000,-0.100000)"
fill="#000000" stroke="none">
<path d="M1099 4550 c-26 -4 -58 -16 -72 -25 -37 -24 -67 -92 -67 -152 l0 -50
-82 -7 c-209 -16 -243 -30 -266 -103 l-13 -41 -67 -6 c-92 -10 -127 -22 -157
-57 l-25 -31 0 -1414 0 -1414 27 -30 c38 -43 86 -48 204 -21 305 68 643 108
953 113 l149 2 19 -78 c59 -252 235 -469 475 -590 130 -65 207 -81 383 -81
131 0 167 4 233 23 151 43 295 131 403 243 109 115 180 243 220 397 l22 86
148 -2 c311 -5 676 -49 972 -117 35 -8 78 -15 95 -15 41 0 95 33 107 66 6 16
10 541 10 1429 l0 1403 -25 31 c-30 35 -65 47 -157 57 l-67 6 -13 41 c-23 73
-57 87 -265 103 l-83 7 0 52 c0 70 -33 132 -85 159 -56 29 -340 36 -505 12
-351 -51 -645 -183 -917 -409 l-93 -77 -92 77 c-270 224 -567 357 -909 407
-112 17 -377 20 -460 6z m536 -180 c287 -61 566 -203 768 -390 l77 -72 0 -792
0 -791 -87 -18 c-165 -34 -322 -114 -430 -219 l-51 -51 -84 26 c-192 61 -311
78 -535 78 l-173 0 0 1124 c0 1061 1 1124 18 1129 9 3 103 3 207 1 146 -3 213
-8 290 -25z m2343 24 l22 -6 0 -1127 0 -1126 -97 5 c-202 12 -395 -12 -597
-72 l-99 -29 -46 44 c-71 68 -122 104 -210 148 -73 36 -246 89 -292 89 -18 0
-19 25 -19 794 l0 794 78 72 c226 209 532 355 851 405 88 13 368 20 409 9z
m-3016 -1278 c3 -1037 3 -1045 24 -1072 50 -67 56 -69 263 -66 104 2 224 -2
270 -8 82 -11 269 -55 279 -65 3 -3 -11 -40 -31 -82 l-37 -78 -93 5 c-50 3
-207 5 -347 4 -245 -1 -282 -3 -493 -40 l-37 -7 2 1219 3 1219 55 6 c30 3 74
6 97 7 l43 2 2 -1044z m3391 1027 c4 -2 7 -551 7 -1220 l0 -1215 -28 5 c-160
32 -272 41 -507 42 -137 0 -292 -2 -342 -5 l-93 -5 -37 78 c-20 42 -34 79 -31
82 10 10 197 54 279 65 46 6 166 10 270 8 207 -3 213 -1 263 66 21 27 21 35
24 1073 l2 1045 93 -7 c50 -4 95 -9 100 -12z m-3753 -1306 c0 -732 4 -1185 10
-1206 13 -46 46 -79 87 -87 19 -4 71 1 116 10 203 39 324 48 572 42 132 -3
254 -8 271 -12 31 -6 31 -7 26 -52 -3 -26 -9 -50 -14 -53 -5 -3 -107 -9 -226
-12 -279 -8 -617 -48 -850 -102 -35 -8 -67 -15 -73 -15 -5 0 -9 506 -9 1324 0
1253 1 1325 18 1329 9 3 29 5 45 6 l27 1 0 -1173z m3988 1167 l22 -6 0 -1325
0 -1325 -22 5 c-262 64 -712 117 -987 117 -75 0 -141 4 -147 8 -6 4 -13 28
-16 54 l-5 47 56 8 c31 4 175 8 321 7 265 0 277 -1 527 -45 64 -11 77 -11 107
4 19 9 43 29 53 44 17 26 18 91 21 1220 l2 1193 23 0 c12 0 32 -3 45 -6z
m-1859 -1860 c326 -81 551 -368 551 -704 0 -401 -319 -720 -720 -720 -402 0
-720 318 -720 720 0 332 216 614 536 700 90 24 263 26 353 4z"/>
<path d="M1508 3940 c-22 -16 -28 -30 -28 -59 0 -57 31 -81 106 -81 152 0 329
-36 472 -96 117 -49 147 -53 178 -23 29 27 32 77 7 107 -10 11 -54 36 -99 55
-158 69 -311 103 -499 113 -103 6 -112 5 -137 -16z"/>
<path d="M1382 3483 c-21 -8 -43 -61 -36 -87 13 -53 34 -60 192 -67 221 -10
385 -52 588 -151 77 -37 108 -47 128 -42 56 14 76 92 34 131 -71 65 -352 170
-542 203 -110 19 -330 27 -364 13z"/>
<path d="M1376 3078 c-36 -31 -39 -78 -7 -112 20 -21 32 -23 155 -29 220 -10
409 -58 600 -153 49 -24 101 -44 116 -44 53 0 87 69 59 122 -14 25 -205 118
-326 157 -133 43 -289 71 -438 78 -129 6 -131 6 -159 -19z"/>
<path d="M1374 2657 c-34 -30 -37 -77 -5 -111 20 -21 33 -23 154 -29 221 -11
414 -60 596 -152 50 -25 103 -45 119 -45 55 0 90 68 62 121 -12 21 -128 83
-246 129 -159 64 -402 110 -574 110 -68 0 -83 -3 -106 -23z"/>
<path d="M3410 3954 c-14 -2 -59 -9 -100 -15 -154 -22 -395 -106 -432 -150
-26 -31 -23 -81 6 -108 31 -29 61 -26 176 22 144 60 324 97 475 97 75 0 105
24 105 82 0 58 -34 78 -129 77 -42 -1 -87 -3 -101 -5z"/>
<path d="M3366 3469 c-183 -32 -465 -139 -533 -202 -42 -38 -23 -117 32 -131
19 -5 51 5 122 40 206 99 376 143 595 153 158 7 179 14 192 67 7 28 -16 79
-39 88 -35 13 -263 4 -369 -15z"/>
<path d="M3495 3093 c-82 -7 -258 -45 -348 -74 -121 -39 -312 -132 -326 -157
-29 -54 5 -122 61 -122 14 0 66 20 114 44 191 95 380 143 600 153 123 6 135 8
155 29 32 34 29 81 -5 111 -25 21 -36 23 -119 21 -51 -1 -110 -3 -132 -5z"/>
<path d="M3438 2665 c-187 -26 -355 -78 -525 -164 -45 -22 -87 -50 -93 -60
-28 -54 7 -121 63 -121 15 0 68 20 118 45 182 92 375 141 596 152 121 6 134 8
154 29 32 34 29 81 -5 111 -24 21 -36 23 -119 22 -51 -1 -136 -7 -189 -14z"/>
<path d="M2484 1950 c-31 -12 -54 -49 -54 -88 0 -44 14 -68 50 -87 43 -22 76
-18 112 14 84 75 -2 204 -108 161z"/>
<path d="M2393 1658 c-47 -23 -53 -103 -10 -133 12 -8 38 -15 59 -15 l38 0 0
-210 0 -210 -55 0 c-46 0 -60 -4 -80 -25 -33 -32 -33 -78 0 -110 24 -25 26
-25 215 -25 189 0 191 0 215 25 33 32 33 78 0 110 -20 21 -34 25 -80 25 l-55
0 0 245 c0 271 -4 291 -60 320 -34 17 -153 19 -187 3z"/>
</g>
</svg>
