<?xml version="1.0" standalone="no"?>
<!DOCTYPE svg PUBLIC "-//W3C//DTD SVG 20010904//EN"
 "http://www.w3.org/TR/2001/REC-SVG-20010904/DTD/svg10.dtd">
<svg version="1.0" xmlns="http://www.w3.org/2000/svg"
 width="512.000000pt" height="512.000000pt" viewBox="0 0 512.000000 512.000000"
 preserveAspectRatio="xMidYMid meet">

<g transform="translate(0.000000,512.000000) scale(0.100000,-0.100000)"
fill="#000000" stroke="none">
<path d="M2425 5114 c-474 -45 -865 -225 -1185 -544 -335 -336 -520 -755 -546
-1240 -8 -151 5 -262 52 -457 121 -500 519 -1287 1007 -1993 387 -559 680
-879 806 -880 99 -1 297 197 596 595 495 659 956 1479 1150 2047 95 276 132
486 121 688 -26 485 -211 904 -546 1240 -283 282 -632 460 -1030 526 -86 14
-351 25 -425 18z m260 -424 c351 -31 651 -169 903 -414 206 -200 347 -448 410
-721 170 -733 -236 -1476 -945 -1729 -432 -155 -923 -95 -1302 158 -523 349
-769 964 -629 1571 141 613 673 1077 1298 1134 120 11 152 12 265 1z"/>
<path d="M1880 4175 c-81 -42 -112 -86 -183 -258 -36 -87 -67 -160 -69 -162
-2 -2 -36 5 -77 15 -65 18 -76 18 -107 5 -47 -19 -68 -70 -61 -147 3 -31 12
-67 20 -79 22 -31 68 -59 96 -59 18 0 22 -4 16 -17 -64 -157 -75 -253 -75
-633 0 -286 2 -318 18 -349 30 -56 70 -71 190 -71 171 0 203 27 210 178 l4 92
699 0 699 0 0 -81 c0 -95 17 -139 65 -169 27 -17 50 -20 140 -20 123 0 160 12
190 63 19 30 20 52 20 382 0 372 -7 443 -55 566 -25 61 -25 59 3 59 27 0 72
29 94 59 8 12 17 48 20 79 7 77 -14 128 -61 147 -31 13 -42 13 -108 -5 -40
-10 -76 -16 -79 -12 -3 4 -35 77 -70 162 -70 171 -102 216 -181 256 l-47 24
-633 0 -633 -1 -45 -24z m1258 -89 c51 -27 71 -61 165 -291 113 -277 113 -276
88 -306 l-19 -24 -812 0 -812 0 -19 24 c-14 17 -18 33 -14 50 13 53 195 484
212 504 10 11 32 28 48 38 28 18 62 19 583 19 456 0 558 -2 580 -14z m-1020
-898 c8 -8 12 -50 12 -125 0 -101 -2 -113 -19 -123 -12 -6 -96 -10 -203 -10
-237 0 -228 -5 -228 135 0 81 3 107 16 119 13 14 47 16 213 16 140 0 200 -3
209 -12z m1300 0 c8 -8 12 -50 12 -125 0 -101 -2 -113 -19 -123 -12 -6 -96
-10 -203 -10 -237 0 -228 -5 -228 135 0 81 3 107 16 119 13 14 47 16 213 16
140 0 200 -3 209 -12z"/>
</g>
</svg>
