<?xml version="1.0" standalone="no"?>
<!DOCTYPE svg PUBLIC "-//W3C//DTD SVG 20010904//EN"
 "http://www.w3.org/TR/2001/REC-SVG-20010904/DTD/svg10.dtd">
<svg version="1.0" xmlns="http://www.w3.org/2000/svg"
 width="512.000000pt" height="512.000000pt" viewBox="0 0 512.000000 512.000000"
 preserveAspectRatio="xMidYMid meet">

<g transform="translate(0.000000,512.000000) scale(0.100000,-0.100000)"
fill="#000000" stroke="none">
<path d="M2305 5056 c-37 -17 -80 -62 -94 -99 -6 -16 -11 -57 -11 -93 l0 -64
-92 0 c-107 -1 -161 -11 -197 -37 -45 -34 -64 -70 -69 -127 -4 -46 0 -62 22
-100 40 -68 86 -86 224 -86 l112 0 0 -100 0 -100 -92 0 c-107 -1 -161 -11
-197 -37 -45 -34 -64 -70 -69 -127 -4 -46 0 -62 22 -100 40 -68 86 -86 224
-86 l112 0 0 -67 c1 -106 41 -174 119 -198 41 -13 155 -6 234 14 234 60 441
255 508 479 l12 43 531 -3 531 -3 72 -26 c257 -94 438 -297 498 -559 12 -53
15 -165 15 -627 l0 -562 -82 54 c-44 30 -85 55 -91 55 -5 0 14 25 42 56 77 85
90 159 38 234 -30 45 -65 69 -109 76 -66 11 -104 -3 -168 -63 -33 -31 -62 -54
-64 -52 -2 2 -22 63 -46 134 -23 72 -59 166 -80 210 -64 134 -188 242 -340
297 l-65 23 -1195 0 -1195 0 -65 -23 c-152 -55 -276 -163 -340 -297 -21 -44
-57 -138 -80 -210 -24 -71 -44 -132 -46 -134 -2 -2 -31 21 -64 52 -64 60 -102
74 -168 63 -44 -7 -79 -31 -109 -76 -51 -74 -39 -149 37 -233 l49 -53 -37 -20
c-20 -10 -71 -45 -113 -76 -156 -118 -283 -306 -324 -480 -25 -110 -96 -550
-102 -633 -11 -158 42 -327 140 -447 l47 -58 0 -182 c0 -128 4 -197 14 -229
48 -159 166 -273 321 -314 82 -21 407 -21 488 0 87 23 155 62 215 123 89 91
131 206 132 360 l0 52 1200 0 1200 0 0 -52 c1 -250 128 -426 347 -483 81 -21
406 -21 488 0 155 41 273 155 321 314 10 32 14 101 14 229 l0 182 47 58 c131
161 170 370 116 622 -14 65 -17 211 -22 1095 l-6 1020 -27 96 c-92 335 -297
588 -595 731 -56 27 -146 61 -200 75 l-98 27 -536 4 -537 3 -11 42 c-14 56
-74 170 -123 231 -63 80 -156 154 -253 201 -135 67 -306 94 -380 61z m359
-470 c15 -20 39 -62 54 -94 23 -49 27 -70 27 -147 0 -81 -4 -97 -33 -157 -30
-61 -127 -168 -153 -168 -5 0 -9 136 -9 330 l0 331 43 -30 c24 -16 56 -46 71
-65z m1076 -1536 c82 -42 103 -74 164 -257 31 -92 56 -174 56 -181 0 -9 -287
-12 -1400 -12 -1113 0 -1400 3 -1400 12 0 7 25 89 56 181 60 181 81 214 162
256 36 20 63 20 1180 21 1125 0 1143 0 1182 -20z m581 -826 c154 -56 287 -182
338 -319 25 -67 111 -571 111 -652 0 -126 -77 -239 -193 -282 l-58 -21 -1959
0 -1959 0 -58 21 c-116 43 -193 156 -193 282 0 81 86 585 111 652 62 166 234
305 419 338 14 2 781 4 1705 3 1671 -1 1680 -1 1736 -22z m-3513 -1624 l202 0
0 -60 c0 -66 -18 -113 -49 -130 -12 -6 -94 -10 -194 -10 -173 0 -174 0 -199
25 -28 28 -38 63 -38 138 l0 50 38 -7 c20 -3 128 -6 240 -6z m3782 -39 c0 -73
-10 -108 -38 -136 -25 -25 -26 -25 -199 -25 -100 0 -182 4 -194 10 -31 17 -49
64 -49 129 l0 61 218 3 c119 1 227 3 240 5 20 2 22 -2 22 -47z"/>
<path d="M870 1861 c-197 -64 -259 -311 -115 -456 54 -54 116 -79 195 -78 77
0 122 17 180 70 83 74 111 188 74 296 -19 55 -82 124 -139 152 -43 21 -153 30
-195 16z m125 -216 c28 -27 31 -45 14 -78 -16 -29 -28 -37 -61 -37 -64 0 -91
80 -42 119 35 27 59 26 89 -4z"/>
<path d="M4085 1857 c-121 -48 -185 -141 -185 -266 0 -72 33 -143 90 -194 58
-53 103 -70 180 -70 79 -1 141 24 195 78 129 130 93 353 -70 437 -48 25 -165
34 -210 15z m129 -208 c49 -39 22 -119 -41 -119 -34 0 -46 8 -62 37 -17 33
-14 51 14 78 30 30 54 31 89 4z"/>
<path d="M1932 1749 c-62 -31 -96 -92 -90 -165 7 -81 55 -136 134 -154 51 -12
1117 -12 1168 0 79 18 127 73 134 154 6 73 -28 134 -91 165 -42 21 -55 21
-628 21 -575 0 -585 0 -627 -21z"/>
</g>
</svg>
