<?xml version="1.0" standalone="no"?>
<!DOCTYPE svg PUBLIC "-//W3C//DTD SVG 20010904//EN"
 "http://www.w3.org/TR/2001/REC-SVG-20010904/DTD/svg10.dtd">
<svg version="1.0" xmlns="http://www.w3.org/2000/svg"
 width="512.000000pt" height="512.000000pt" viewBox="0 0 512.000000 512.000000"
 preserveAspectRatio="xMidYMid meet">

<g transform="translate(0.000000,512.000000) scale(0.100000,-0.100000)"
fill="#000000" stroke="none">
<path d="M2664 4900 c-36 -14 -64 -59 -64 -101 0 -21 16 -119 35 -217 40 -210
38 -228 -29 -290 -78 -72 -118 -87 -226 -87 -108 0 -148 15 -180 67 -10 17
-40 116 -66 222 -53 216 -63 240 -104 261 -60 31 -98 15 -186 -76 -107 -113
-176 -235 -216 -380 -19 -70 -23 -107 -22 -219 1 -116 5 -148 28 -223 43 -144
85 -217 208 -359 l71 -83 -229 -5 c-253 -7 -276 -11 -370 -75 -65 -45 -81 -65
-264 -340 -84 -126 -154 -232 -156 -234 -2 -2 -140 -37 -306 -78 -167 -40
-331 -83 -365 -94 -80 -26 -152 -90 -190 -167 l-28 -57 0 -345 c0 -264 3 -357
14 -395 31 -113 119 -224 225 -284 80 -46 165 -61 352 -61 l161 0 12 -42 c51
-172 194 -311 375 -365 66 -20 206 -20 272 0 181 54 324 193 375 365 l12 42
113 0 113 0 3 -373 3 -372 32 -67 c105 -222 349 -312 568 -209 119 55 211 173
235 300 5 29 10 204 10 388 l0 333 166 -2 167 -3 12 -41 c38 -129 141 -254
260 -316 223 -114 474 -68 644 118 55 60 106 152 117 212 l6 32 252 0 c138 0
266 4 285 10 84 24 105 50 219 274 l107 211 3 269 c4 308 -2 344 -73 431 -76
92 -82 94 -699 197 l-548 92 -169 252 c-101 151 -186 267 -211 289 -89 76
-175 105 -320 105 -54 0 -98 3 -98 8 0 4 29 39 64 79 167 187 236 357 238 583
1 131 -11 200 -55 315 -78 206 -231 374 -421 465 -91 43 -131 53 -162 40z
m292 -413 c143 -188 175 -442 83 -652 -25 -58 -94 -159 -134 -195 -78 -71
-167 -216 -207 -335 l-23 -70 -5 -1325 -5 -1325 -25 -45 c-67 -119 -225 -147
-326 -57 -75 65 -68 -58 -74 1417 l-5 1325 -27 80 c-41 118 -95 207 -196 323
-161 184 -216 338 -191 536 10 82 55 213 87 255 l19 23 27 -103 c35 -130 54
-175 97 -223 74 -85 185 -128 329 -128 150 -1 257 43 375 153 121 113 150 244
98 433 -9 33 49 -16 103 -87z m-931 -1369 c3 -46 5 -429 3 -853 l-3 -770 -111
-3 -111 -3 -12 43 c-58 196 -232 349 -433 380 -258 39 -514 -126 -589 -380
l-13 -44 -170 4 c-146 3 -178 7 -216 24 -57 26 -107 76 -134 134 -20 42 -21
66 -24 341 -4 321 0 351 50 383 12 8 178 53 368 101 190 47 358 91 373 97 22
8 73 77 207 277 98 146 191 279 208 294 54 51 85 56 354 57 l246 0 7 -82z
m1206 54 c52 -26 62 -39 231 -291 97 -145 187 -274 199 -287 27 -29 -22 -19
629 -128 357 -61 558 -99 574 -109 38 -26 46 -74 46 -296 l0 -204 -89 -184
-90 -183 -237 2 -237 3 -17 50 c-68 198 -217 328 -420 365 -254 46 -523 -119
-595 -367 l-16 -53 -164 0 -165 0 0 824 c0 453 3 838 6 855 l7 31 142 0 c136
0 145 -1 196 -28z m-1851 -1484 c196 -61 279 -298 164 -475 -59 -92 -154 -143
-264 -143 -110 0 -205 51 -264 143 -83 128 -68 293 37 395 93 90 205 117 327
80z m2405 11 c76 -14 121 -37 172 -89 68 -67 88 -119 88 -225 0 -78 -4 -97
-27 -140 -32 -60 -87 -114 -148 -146 -65 -34 -204 -34 -272 -1 -55 27 -122 91
-148 142 -96 188 22 425 229 460 25 4 46 8 47 9 0 0 27 -4 59 -10z"/>
</g>
</svg>
